<?xml version="1.0" encoding="utf-8"?>
<!-- Generator: Adobe Illustrator 27.4.1, SVG Export Plug-In . SVG Version: 6.00 Build 0)  -->
<svg version="1.1" id="Layer_1" xmlns="http://www.w3.org/2000/svg" xmlns:xlink="http://www.w3.org/1999/xlink" x="0px" y="0px"
	 viewBox="0 0 806.1 599" style="enable-background:new 0 0 806.1 599;" xml:space="preserve">
<style type="text/css">
	.st0{fill:none;}
	.st1{opacity:6.000000e-02;}
	.st2{fill:url(#SVGID_1_);}
	.st3{fill:url(#SVGID_00000117653920650689823420000011449199115713747867_);}
	.st4{clip-path:url(#SVGID_00000113339515633392088500000017947896763155573140_);}
	.st5{fill:none;stroke:#000000;stroke-width:8;stroke-miterlimit:10;}
	.st6{fill:#13161F;}
	.st7{fill:#0F1015;}
	.st8{fill:url(#SVGID_00000040534487363804683230000004550308044675370911_);}
	.st9{fill:#080808;}
	.st10{fill:#1F1F1F;}
	.st11{opacity:0.1;fill:#E6E6E6;enable-background:new    ;}
	.st12{opacity:8.000000e-02;fill:url(#SVGID_00000005240218175656428380000014056492565003978395_);enable-background:new    ;}
	.st13{opacity:0.22;enable-background:new    ;}
	.st14{opacity:8.000000e-02;fill:url(#SVGID_00000052064045007184821720000017768328230568626347_);enable-background:new    ;}
	.st15{fill:url(#SVGID_00000018218713487595622550000000803647912007101084_);}
	.st16{fill:#10111A;}
	.st17{fill:url(#SVGID_00000121242948668923425010000009999171341169537411_);}
	.st18{display:none;}
	.st19{display:inline;}
	.st20{fill:#1A1A1A;}
	.st21{opacity:0.25;enable-background:new    ;}
	.st22{opacity:0.12;}
	.st23{fill:#FFFFFF;}
	.st24{fill:#0B0B0F;}
	.st25{fill:url(#SVGID_00000051383034534791050000000013196646358647360137_);}
	.st26{fill:url(#SVGID_00000157998271064736190590000013852522215275498627_);}
	.st27{fill:#EBBD23;}
	.st28{clip-path:url(#SVGID_00000083783882031373955840000014253890067073776051_);fill:#BE9B2A;}
	.st29{fill:#0F0F0F;}
	.st30{fill:#FF6666;}
	.st31{fill:#7CB2E8;}
	.st32{fill:#FF69F8;}
	.st33{fill:#40E2A0;}
	.st34{fill:#050505;stroke:#000000;stroke-width:2;stroke-miterlimit:10;}
	.st35{fill:#F2F2F2;}
	.st36{fill:#0A0A0A;}
	.st37{fill:#121212;}
	.st38{opacity:8.000000e-02;}
	.st39{fill:#CCCCCC;}
</style>
<pattern  y="599" width="40" height="103" patternUnits="userSpaceOnUse" id="SVGID_4_" viewBox="0 -231.7 40 103" style="overflow:visible;">
	<g>
		<rect y="-231.7" class="st0" width="40" height="103"/>
		<rect y="-231.7" class="st0" width="40" height="103"/>
		<g>
			<polygon class="st0" points="0,-128.7 40,-128.7 40,-231.7 0,-231.7 			"/>
			<g>
				<polygon class="st0" points="0,-128.7 40,-128.7 40,-231.7 0,-231.7 				"/>
				<polygon points="34.5,-360.5 37.5,-360.5 37.5,-206 34.5,-206 				"/>
				<polygon points="26.5,-360.5 29.5,-360.5 29.5,-206 26.5,-206 				"/>
				<polygon points="18.5,-360.5 21.5,-360.5 21.5,-206 18.5,-206 				"/>
				<polygon points="10.5,-360.5 13.5,-360.5 13.5,-206 10.5,-206 				"/>
				<polygon points="2.5,-360.5 5.5,-360.5 5.5,-206 2.5,-206 				"/>
				<polygon points="34.5,-257.5 37.5,-257.5 37.5,-103 34.5,-103 				"/>
				<polygon points="26.5,-257.5 29.5,-257.5 29.5,-103 26.5,-103 				"/>
				<polygon points="18.5,-257.5 21.5,-257.5 21.5,-103 18.5,-103 				"/>
				<polygon points="10.5,-257.5 13.5,-257.5 13.5,-103 10.5,-103 				"/>
				<polygon points="2.5,-257.5 5.5,-257.5 5.5,-103 2.5,-103 				"/>
				<polygon points="34.5,-154.5 37.5,-154.5 37.5,0 34.5,0 				"/>
				<polygon points="26.5,-154.5 29.5,-154.5 29.5,0 26.5,0 				"/>
				<polygon points="18.5,-154.5 21.5,-154.5 21.5,0 18.5,0 				"/>
				<polygon points="10.5,-154.5 13.5,-154.5 13.5,0 10.5,0 				"/>
				<polygon points="2.5,-154.5 5.5,-154.5 5.5,0 2.5,0 				"/>
			</g>
		</g>
	</g>
</pattern>
<pattern  y="599" width="40" height="103" patternUnits="userSpaceOnUse" id="SVGID_5_" viewBox="0 -231.7 40 103" style="overflow:visible;">
	<g>
		<rect y="-231.7" class="st0" width="40" height="103"/>
		<rect y="-231.7" class="st0" width="40" height="103"/>
		<g>
			<polygon class="st0" points="0,-128.7 40,-128.7 40,-231.7 0,-231.7 			"/>
			<g>
				<polygon class="st0" points="0,-128.7 40,-128.7 40,-231.7 0,-231.7 				"/>
				<polygon points="34.5,-360.5 37.5,-360.5 37.5,-206 34.5,-206 				"/>
				<polygon points="26.5,-360.5 29.5,-360.5 29.5,-206 26.5,-206 				"/>
				<polygon points="18.5,-360.5 21.5,-360.5 21.5,-206 18.5,-206 				"/>
				<polygon points="10.5,-360.5 13.5,-360.5 13.5,-206 10.5,-206 				"/>
				<polygon points="2.5,-360.5 5.5,-360.5 5.5,-206 2.5,-206 				"/>
				<polygon points="34.5,-257.5 37.5,-257.5 37.5,-103 34.5,-103 				"/>
				<polygon points="26.5,-257.5 29.5,-257.5 29.5,-103 26.5,-103 				"/>
				<polygon points="18.5,-257.5 21.5,-257.5 21.5,-103 18.5,-103 				"/>
				<polygon points="10.5,-257.5 13.5,-257.5 13.5,-103 10.5,-103 				"/>
				<polygon points="2.5,-257.5 5.5,-257.5 5.5,-103 2.5,-103 				"/>
				<polygon points="34.5,-154.5 37.5,-154.5 37.5,0 34.5,0 				"/>
				<polygon points="26.5,-154.5 29.5,-154.5 29.5,0 26.5,0 				"/>
				<polygon points="18.5,-154.5 21.5,-154.5 21.5,0 18.5,0 				"/>
				<polygon points="10.5,-154.5 13.5,-154.5 13.5,0 10.5,0 				"/>
				<polygon points="2.5,-154.5 5.5,-154.5 5.5,0 2.5,0 				"/>
			</g>
		</g>
	</g>
</pattern>
<g>
	<g class="st1">
		<radialGradient id="SVGID_1_" cx="403.05" cy="310.9" r="317.5321" gradientUnits="userSpaceOnUse">
			<stop  offset="0" style="stop-color:#FFFBCC"/>
			<stop  offset="0.1146" style="stop-color:#FBF2BB"/>
			<stop  offset="0.3413" style="stop-color:#F0D98E"/>
			<stop  offset="0.3708" style="stop-color:#EED688"/>
			<stop  offset="0.6854" style="stop-color:#EBBB10"/>
			<stop  offset="1" style="stop-color:#C3922E"/>
		</radialGradient>
		<path class="st2" d="M36.6,276c9.4-27.7,13.1-53,17-64.9c12-35.7,33-65.7,33-65.7s9.5-13.1,10.1-16.3s4.7-8.6,4.7-8.6
			s17.4-5.7,62.3-5.7s53.7,5,53.7,5c1.7,1.9,3.7,3.5,5.9,4.8c3.5,1.8,11.7,1.7,11.7,1.7h33.4c0.3-0.1,0.7,0.1,0.9,0.3
			c0.3,0.6,0.5,1.3,0.6,2h266.2c0.1-0.7,0.3-1.4,0.6-2c0.2-0.2,0.6-0.3,0.9-0.3H571c0,0,8.2,0.2,11.7-1.7c2.2-1.2,4.2-2.8,5.9-4.8
			c0,0,8.8-5,53.7-5s62.3,5.7,62.3,5.7s4.1,5.3,4.7,8.6s10.1,16.3,10.1,16.3s21,30,33,65.7c4,11.9,7.7,37.2,17,64.9
			c14.3,42.1,29.1,129.1,32,144.6c3.9,20.9,4.6,77.3,4.7,88.3v-0.1c0,0-0.3-66.9-4.7-90.1c-2.9-15.5-17.7-102.5-32-144.6
			c-9.4-27.7-13.1-53-17-64.9c-12-35.7-33-65.7-33-65.7s-9.5-13.1-10.1-16.3s-4.7-8.6-4.7-8.6s-17.4-5.7-62.3-5.7s-53.7,5-53.7,5
			c-1.7,1.9-3.7,3.5-5.9,4.8c-3.5,1.8-11.7,1.7-11.7,1.7h-33.4c-0.3-0.1-0.7,0.1-0.9,0.3c-0.3,0.6-0.5,1.3-0.6,2H269.9
			c-0.1-0.7-0.3-1.4-0.6-2c-0.2-0.2-0.6-0.3-0.9-0.3H235c0,0-8.2,0.2-11.7-1.7c-2.2-1.2-4.2-2.8-5.9-4.8c0,0-8.8-5-53.7-5
			s-62.3,5.7-62.3,5.7s-4.1,5.3-4.7,8.6c-0.6,3.3-10.1,16.3-10.1,16.3s-21,30-33,65.7c-4,11.9-7.7,37.2-17,64.9
			c-14.3,42.1-29.1,129.1-32,144.6C0.3,441.8,0,508.8,0,508.8v0.1c0.1-10.9,0.7-67.4,4.7-88.3C7.6,405.2,22.3,318.1,36.6,276z"/>
	</g>
	
		<linearGradient id="SVGID_00000036229200721032517300000006046335013273939109_" gradientUnits="userSpaceOnUse" x1="0" y1="355.8833" x2="806" y2="355.8833">
		<stop  offset="5.618000e-03" style="stop-color:#FBC926"/>
		<stop  offset="0.2528" style="stop-color:#FFFBCC"/>
		<stop  offset="0.3045" style="stop-color:#F8F0BB"/>
		<stop  offset="0.4072" style="stop-color:#E7D28E"/>
		<stop  offset="0.55" style="stop-color:#CCA246"/>
		<stop  offset="0.5955" style="stop-color:#C3922E"/>
		<stop  offset="0.8708" style="stop-color:#EED688"/>
		<stop  offset="1" style="stop-color:#FFFBCC"/>
	</linearGradient>
	<path style="fill:url(#SVGID_00000036229200721032517300000006046335013273939109_);" d="M801.3,418.6
		c-2.9-15.5-17.7-102.5-32-144.6c-9.4-27.7-13.1-53-17-64.9c-12-35.7-33-65.7-33-65.7s-9.5-13.1-10.1-16.3s-4.7-8.6-4.7-8.6
		s-17.4-5.7-62.3-5.7s-53.7,5-53.7,5c-1.7,1.9-3.7,3.5-5.9,4.8c-3.5,1.8-11.7,1.7-11.7,1.7h-33.4c-0.3-0.1-0.7,0.1-0.9,0.3
		c-0.3,0.6-0.5,1.3-0.6,2H269.9c-0.1-0.7-0.3-1.4-0.6-2c-0.2-0.2-0.6-0.3-0.9-0.3H235c0,0-8.2,0.2-11.7-1.7
		c-2.2-1.2-4.2-2.8-5.9-4.8c0,0-8.8-5-53.7-5s-62.3,5.7-62.3,5.7s-4.1,5.3-4.7,8.6c-0.6,3.3-10.1,16.3-10.1,16.3s-21,30-33,65.7
		c-4,11.9-7.7,37.2-17,64.9c-14.3,42.1-29.1,129.1-32,144.6C0.3,441.8,0,508.8,0,508.8s4.5,53.4,36.2,74.9s56.7,14,56.7,14
		s33.1-8.2,57.8-41.9s56.6-129.2,56.6-129.2c1.6-2.1,3.5-3.8,5.7-5.3c1.9-1.3,4-2.2,6.3-2.6l183.7,0.1l183.7-0.1
		c2.3,0.4,4.4,1.3,6.3,2.6c2.2,1.5,4.1,3.2,5.7,5.3c0,0,31.9,95.4,56.6,129.2s57.8,41.9,57.8,41.9s25,7.5,56.7-14
		s36.2-74.9,36.2-74.9S805.7,441.8,801.3,418.6z"/>
	<g>
		<defs>
			<path id="SVGID_00000019652817517076759720000003059535829145923754_" d="M801.3,418.6c-2.9-15.5-17.7-102.5-32-144.6
				c-9.4-27.7-13.1-53-17-64.9c-12-35.7-33-65.7-33-65.7s-9.5-13.1-10.1-16.3s-4.7-8.6-4.7-8.6s-17.4-5.7-62.3-5.7s-53.7,5-53.7,5
				c-1.7,1.9-3.7,3.5-5.9,4.8c-3.5,1.8-11.7,1.7-11.7,1.7h-33.4c-0.3-0.1-0.7,0.1-0.9,0.3c-0.3,0.6-0.5,1.3-0.6,2H269.9
				c-0.1-0.7-0.3-1.4-0.6-2c-0.2-0.2-0.6-0.3-0.9-0.3H235c0,0-8.2,0.2-11.7-1.7c-2.2-1.2-4.2-2.8-5.9-4.8c0,0-8.8-5-53.7-5
				s-62.3,5.7-62.3,5.7s-4.1,5.3-4.7,8.6c-0.6,3.3-10.1,16.3-10.1,16.3s-21,30-33,65.7c-4,11.9-7.7,37.2-17,64.9
				c-14.3,42.1-29.1,129.1-32,144.6C0.3,441.8,0,508.8,0,508.8s4.5,53.4,36.2,74.9s56.7,14,56.7,14s33.1-8.2,57.8-41.9
				s56.6-129.2,56.6-129.2c1.6-2.1,3.5-3.8,5.7-5.3c1.9-1.3,4-2.2,6.3-2.6l183.7,0.1l183.7-0.1c2.3,0.4,4.4,1.3,6.3,2.6
				c2.2,1.5,4.1,3.2,5.7,5.3c0,0,31.9,95.4,56.6,129.2s57.8,41.9,57.8,41.9s25,7.5,56.7-14s36.2-74.9,36.2-74.9
				S805.7,441.8,801.3,418.6z"/>
		</defs>
		<clipPath id="SVGID_00000078015112243935576500000011847699098722072450_">
			<use xlink:href="#SVGID_00000019652817517076759720000003059535829145923754_"  style="overflow:visible;"/>
		</clipPath>
		<g style="clip-path:url(#SVGID_00000078015112243935576500000011847699098722072450_);">
			<polygon class="st5" points="506,273 284,271 445.3,353 			"/>
			<polygon class="st5" points="270,267 271,137 162,392 162,413 			"/>
			<polygon class="st5" points="162,392 48,273 162,532 			"/>
			<polygon class="st5" points="61.9,304.6 5,538 115.8,427.1 			"/>
			<polygon class="st5" points="675,362 509,273 532,263 535,137 710.8,340.2 			"/>
			<polygon class="st5" points="675,362 642,521 772,303 			"/>
			<polygon class="st5" points="350,308 333,419 446,418 			"/>
			<polygon class="st5" points="257,154 41.5,257.9 145,122 			"/>
			<polygon class="st5" points="701,120 548.3,149 574.8,183 709.5,260.1 			"/>
		</g>
	</g>
	<path class="st6" d="M351.2,360c0-42.2-34.3-76.5-76.5-76.5s-76.5,34.3-76.5,76.5c0,0.7,0,1.3,0.1,2c0,0.7-0.1,1.3-0.1,2
		c0,42.2,34.3,76.5,76.5,76.5s76.5-34.3,76.5-76.5c0-0.7,0-1.3-0.1-2C351.1,361.3,351.2,360.6,351.2,360z"/>
	<circle class="st7" cx="274.7" cy="356" r="73"/>
	<circle cx="274.7" cy="356" r="51.5"/>
	<path class="st6" d="M607.8,360c0-42.2-34.3-76.5-76.5-76.5s-76.5,34.3-76.5,76.5c0,0.7,0,1.3,0.1,2c0,0.7-0.1,1.3-0.1,2
		c0,42.2,34.3,76.5,76.5,76.5s76.5-34.3,76.5-76.5c0-0.7,0-1.3-0.1-2C607.8,361.3,607.8,360.7,607.8,360z"/>
	<circle class="st7" cx="531.3" cy="356" r="73"/>
	<circle cx="531.3" cy="356" r="51.5"/>
	
		<linearGradient id="SVGID_00000103231602601349315390000009970876292691374745_" gradientUnits="userSpaceOnUse" x1="271.0959" y1="197.9998" x2="534.9332" y2="197.9998">
		<stop  offset="5.618000e-03" style="stop-color:#FBC926"/>
		<stop  offset="0.2528" style="stop-color:#FFFBCC"/>
		<stop  offset="0.3045" style="stop-color:#F8F0BB"/>
		<stop  offset="0.4072" style="stop-color:#E7D28E"/>
		<stop  offset="0.55" style="stop-color:#CCA246"/>
		<stop  offset="0.5955" style="stop-color:#C3922E"/>
		<stop  offset="0.8708" style="stop-color:#EED688"/>
		<stop  offset="1" style="stop-color:#FFFBCC"/>
	</linearGradient>
	<path style="fill:url(#SVGID_00000103231602601349315390000009970876292691374745_);" d="M534.8,128c-0.5-3.2-3.2-5.6-6.5-5.6
		H277.7c-3.3,0-6.1,2.4-6.5,5.6c-0.1,0.7-0.1,1.4-0.1,2.1v127.4c0,8.9,7.2,16.1,16.1,16.1c0,0,0,0,0,0h231.6
		c8.9,0,16.1-7.2,16.1-16.1c0,0,0,0,0,0V130.1C535,129.4,534.9,128.7,534.8,128z"/>
	<circle class="st9" cx="652.3" cy="244.8" r="94.3"/>
	<g>
		<circle class="st9" cx="153.7" cy="244.8" r="94.3"/>
		<path class="st10" d="M230.4,254.1l9.5-8.9c0.5-0.4,0.5-1.2,0.1-1.6c0,0,0-0.1-0.1-0.1l-9.5-8.9c-0.4-0.4-1.2-0.4-1.6,0
			c-0.2,0.2-0.3,0.5-0.3,0.8v17.8c0,0.6,0.5,1.2,1.1,1.2C229.9,254.4,230.2,254.3,230.4,254.1z"/>
		<path class="st10" d="M145,169.8h17.8c0.6,0,1.1-0.5,1.1-1.1c0-0.3-0.1-0.6-0.3-0.8l-8.9-9.5c-0.4-0.5-1.2-0.5-1.6-0.1
			c0,0-0.1,0-0.1,0.1l-8.9,9.5c-0.4,0.5-0.3,1.2,0.2,1.6C144.5,169.7,144.7,169.8,145,169.8z"/>
		<path class="st10" d="M77.5,234.6l-9.5,8.9c-0.5,0.4-0.5,1.2-0.1,1.6c0,0,0,0.1,0.1,0.1l9.5,8.9c0.4,0.4,1.2,0.4,1.6,0
			c0.2-0.2,0.3-0.5,0.3-0.8v-17.8c0-0.6-0.4-1.2-1.1-1.2C78,234.3,77.7,234.4,77.5,234.6z"/>
		<path class="st10" d="M162.8,318.8H145c-0.6,0-1.1,0.5-1.1,1.1c0,0.3,0.1,0.6,0.3,0.8l8.9,9.5c0.4,0.5,1.2,0.5,1.6,0.1
			c0,0,0.1,0,0.1-0.1l8.9-9.5c0.4-0.5,0.3-1.2-0.2-1.6C163.3,318.9,163.1,318.8,162.8,318.8z"/>
	</g>
</g>
<g>
	<g>
		<path class="st11" d="M105.2,544.5c-40.5-2.8-75.8-20.3-87.3-30.5S0.4,482.4,0.4,482.4C0,497.4,0,508.7,0,508.7
			s4.5,53.4,36.2,74.9s56.7,14,56.7,14s33.1-8.2,57.8-41.9c5.3-7.6,10-15.5,14.1-23.8C164.7,531.9,145.6,547.2,105.2,544.5z"/>
		
			<pattern  id="SVGID_00000067230731001430089150000001482225318075103422_" xlink:href="#SVGID_4_" patternTransform="matrix(0.3268 9.371670e-02 9.371670e-02 -0.3268 -14507.7998 -16999.4043)">
		</pattern>
		
			<path style="opacity:8.000000e-02;fill:url(#SVGID_00000067230731001430089150000001482225318075103422_);enable-background:new    ;" d="
			M105.2,544.5c-40.5-2.8-75.8-20.3-87.3-30.5S0.4,482.4,0.4,482.4C0,497.4,0,508.7,0,508.7s4.5,53.4,36.2,74.9s56.7,14,56.7,14
			s33.1-8.2,57.8-41.9c5.3-7.6,10-15.5,14.1-23.8C164.7,531.9,145.6,547.2,105.2,544.5z"/>
		<path class="st13" d="M90,592.5c-12.5,1.8-31.3-2-45.1-7.7c-13.6-5.7-24-16.4-24-16.4c4.2,5.9,9.4,11,15.3,15.2
			c31.7,21.5,56.7,14,56.7,14s11.7-2.9,26.3-12.3C109.7,588.6,99.9,591,90,592.5z"/>
	</g>
	<g>
		<path class="st11" d="M700.8,544.5c40.5-2.8,75.8-20.3,87.3-30.5s17.5-31.5,17.5-31.5c0.4,15,0.4,26.3,0.4,26.3
			s-4.5,53.4-36.2,74.9s-56.7,14-56.7,14s-33.1-8.2-57.8-41.9c-5.3-7.6-10-15.5-14.1-23.8C641.3,531.9,660.4,547.2,700.8,544.5z"/>
		
			<pattern  id="SVGID_00000128485517661916187160000009066685638690815678_" xlink:href="#SVGID_5_" patternTransform="matrix(-0.33 9.000000e-02 -9.000000e-02 -0.33 -32190.791 -17069.8008)">
		</pattern>
		
			<path style="opacity:8.000000e-02;fill:url(#SVGID_00000128485517661916187160000009066685638690815678_);enable-background:new    ;" d="
			M700.8,544.5c40.5-2.8,75.8-20.3,87.3-30.5s17.5-31.5,17.5-31.5c0.4,15,0.4,26.3,0.4,26.3s-4.5,53.4-36.2,74.9s-56.7,14-56.7,14
			s-33.1-8.2-57.8-41.9c-5.3-7.6-10-15.5-14.1-23.8C641.3,531.9,660.4,547.2,700.8,544.5z"/>
		<path class="st13" d="M716,592.5c12.5,1.8,31.3-2,45.1-7.7c13.6-5.7,24-16.4,24-16.4c-4.2,5.9-9.4,11-15.3,15.2
			c-31.7,21.5-56.7,14-56.7,14s-11.7-2.9-26.3-12.3C696.3,588.6,706.1,591,716,592.5z"/>
	</g>
	<g>
		
			<radialGradient id="SVGID_00000119118929316117537130000007966874413639947707_" cx="240.5" cy="165.1454" r="19.3216" gradientUnits="userSpaceOnUse">
			<stop  offset="0" style="stop-color:#FFFBCC"/>
			<stop  offset="0.1146" style="stop-color:#FBF2BB"/>
			<stop  offset="0.3413" style="stop-color:#F0D98E"/>
			<stop  offset="0.3708" style="stop-color:#EED688"/>
			<stop  offset="0.6854" style="stop-color:#EBBB10"/>
			<stop  offset="1" style="stop-color:#C3922E"/>
		</radialGradient>
		<path style="fill:url(#SVGID_00000119118929316117537130000007966874413639947707_);" d="M240.5,143.5c6.9,0,12.5,5.6,12.5,12.5
			v18.3c0,6.9-5.6,12.5-12.5,12.5s-12.5-5.6-12.5-12.5V156C228,149.1,233.6,143.5,240.5,143.5 M240.5,141.8
			c-7.8,0-14.2,6.4-14.2,14.2v18.3c0,7.8,6.4,14.2,14.2,14.2c7.8,0,14.2-6.4,14.2-14.2V156C254.7,148.2,248.4,141.8,240.5,141.8
			C240.5,141.8,240.5,141.8,240.5,141.8z"/>
		<path class="st16" d="M240.5,143.5c-6.9,0-12.5,5.6-12.5,12.5v18.3c0,6.9,5.6,12.5,12.5,12.5s12.5-5.6,12.5-12.5V156
			C253,149.1,247.4,143.5,240.5,143.5z"/>
	</g>
	<g>
		
			<radialGradient id="SVGID_00000065781793696275033650000005713397124628164013_" cx="565.5" cy="165.15" r="19.3244" gradientUnits="userSpaceOnUse">
			<stop  offset="0" style="stop-color:#FFFBCC"/>
			<stop  offset="0.1146" style="stop-color:#FBF2BB"/>
			<stop  offset="0.3413" style="stop-color:#F0D98E"/>
			<stop  offset="0.3708" style="stop-color:#EED688"/>
			<stop  offset="0.6854" style="stop-color:#EBBB10"/>
			<stop  offset="1" style="stop-color:#C3922E"/>
		</radialGradient>
		<path style="fill:url(#SVGID_00000065781793696275033650000005713397124628164013_);" d="M565.5,143.5c6.9,0,12.5,5.6,12.5,12.5
			v18.3c0,6.9-5.6,12.5-12.5,12.5l0,0l0,0c-6.9,0-12.5-5.6-12.5-12.5l0,0V156C553,149.1,558.6,143.5,565.5,143.5L565.5,143.5
			 M565.5,141.8c-7.8,0-14.2,6.4-14.2,14.2v18.3c0,7.8,6.4,14.2,14.2,14.2s14.2-6.4,14.2-14.2l0,0V156
			C579.7,148.2,573.4,141.8,565.5,141.8C565.5,141.8,565.5,141.8,565.5,141.8z"/>
		<path class="st16" d="M565.5,143.5c-6.9,0-12.5,5.6-12.5,12.5v18.3c0,6.9,5.6,12.5,12.5,12.5s12.5-5.6,12.5-12.5V156
			C578,149.1,572.4,143.5,565.5,143.5z"/>
	</g>
	<g class="st18">
		<g class="st19">
			<path class="st20" d="M141.2,247.2c1.4-2,1.2-2.9,1.2-2.9s0.2-0.9-1.2-2.9s-15-13.6-15.7-14s-28.5-2.2-31.4,1.3
				s-2.6,15.6-2.6,15.6s-0.3,12.1,2.6,15.6s30.7,1.7,31.4,1.3S139.8,249.2,141.2,247.2z"/>
			<path class="st21" d="M141.2,247.2c1.4-2,1.2-2.9,1.2-2.9s0.2-0.9-1.2-2.9c-0.9-1.3-6.9-6.6-11.2-10.3c-2.2,4.1-3.4,8.6-3.4,13.2
				c0,4.6,1.1,9.2,3.4,13.2C134.3,253.8,140.3,248.5,141.2,247.2z"/>
		</g>
		<g class="st19">
			<path class="st20" d="M151,231.6c2,1.4,2.9,1.2,2.9,1.2s0.9,0.2,2.9-1.2s13.6-15,14-15.7s2.2-28.5-1.3-31.4s-15.6-2.6-15.6-2.6
				s-12.1-0.3-15.6,2.6s-1.7,30.7-1.3,31.4S149,230.2,151,231.6z"/>
			<path class="st21" d="M151,231.6c2,1.4,2.9,1.2,2.9,1.2s0.9,0.2,2.9-1.2c1.3-0.9,6.6-6.9,10.3-11.2c-4.1-2.2-8.6-3.4-13.2-3.4
				c-4.6,0-9.2,1.1-13.2,3.4C144.5,224.7,149.7,230.7,151,231.6z"/>
		</g>
		<g class="st19">
			<path class="st20" d="M213.7,228.8c-2.9-3.5-30.7-1.7-31.4-1.3s-14.3,12-15.7,14s-1.2,2.9-1.2,2.9s-0.2,0.9,1.2,2.9
				s15,13.6,15.7,14s28.5,2.2,31.4-1.3s2.6-15.6,2.6-15.6S216.6,232.3,213.7,228.8z"/>
			<path class="st21" d="M177.9,231.2c-4.3,3.7-10.3,9-11.2,10.3c-1.4,2-1.2,2.9-1.2,2.9s-0.2,0.9,1.2,2.9
				c0.9,1.3,6.9,6.6,11.2,10.3C182.4,249.4,182.4,239.4,177.9,231.2L177.9,231.2z"/>
		</g>
		<g class="st19">
			<path class="st20" d="M156.8,257.1c-2-1.4-2.9-1.2-2.9-1.2s-0.9-0.2-2.9,1.2s-13.6,15-14,15.7s-2.2,28.5,1.3,31.4
				s15.6,2.6,15.6,2.6s12.1,0.3,15.6-2.6s1.7-30.7,1.3-31.4S158.8,258.5,156.8,257.1z"/>
			<path class="st21" d="M156.8,257.1c-2-1.4-2.9-1.2-2.9-1.2s-0.9-0.2-2.9,1.2c-1.3,0.9-6.6,6.9-10.3,11.2
				c4.1,2.2,8.6,3.4,13.2,3.4c4.6,0,9.2-1.1,13.2-3.4C163.4,264,158.1,258,156.8,257.1z"/>
		</g>
	</g>
</g>
<g>
	<g>
		<circle cx="403" cy="316.4" r="4.1"/>
		<circle cx="403" cy="295.5" r="4.1"/>
		<circle cx="396.1" cy="305.7" r="4.1"/>
		<circle cx="381.4" cy="305.7" r="4.1"/>
		<circle cx="388.7" cy="316.4" r="4.1"/>
		<circle cx="388.7" cy="295.5" r="4.1"/>
		<circle cx="374.4" cy="295.5" r="4.1"/>
	</g>
	<g>
		<circle cx="409.9" cy="305.7" r="4.1"/>
		<circle cx="424.6" cy="305.7" r="4.1"/>
		<circle cx="417.2" cy="316.4" r="4.1"/>
		<circle cx="417.2" cy="295.5" r="4.1"/>
		<circle cx="431.6" cy="295.5" r="4.1"/>
	</g>
</g>
<g class="st22">
	<path class="st23" d="M403,319.5c-2.1,0-3.8-1.6-4.1-3.6c0,0.2-0.1,0.3-0.1,0.5c0,2.3,1.8,4.1,4.1,4.1s4.1-1.8,4.1-4.1
		c0-0.2,0-0.3-0.1-0.5C406.8,317.9,405.1,319.5,403,319.5z"/>
	<path class="st23" d="M403,299.6c2.2,0,4.1-1.8,4.1-4c0,0,0-0.1,0-0.1c0-0.2,0-0.3-0.1-0.5c-0.3,2.1-2,3.6-4.1,3.6
		c-2.1,0-3.8-1.6-4.1-3.6c0,0.2-0.1,0.3-0.1,0.5C398.9,297.8,400.7,299.5,403,299.6z"/>
	<path class="st23" d="M400.2,305.7c0-0.2,0-0.3-0.1-0.5c-0.3,2.1-2,3.6-4.1,3.6c-2.1,0-3.8-1.6-4.1-3.6c0,0.2-0.1,0.3-0.1,0.5
		c0,2.2,1.8,4.1,4,4.1c0,0,0.1,0,0.1,0C398.2,309.9,400.1,308.1,400.2,305.7C400.2,305.7,400.2,305.7,400.2,305.7z"/>
	<path class="st23" d="M385.4,305.2c-0.3,2.1-2,3.6-4.1,3.6c-2.1,0-3.8-1.6-4.1-3.6c0,0.2-0.1,0.3-0.1,0.5c0,2.3,1.8,4.1,4.1,4.1
		s4.1-1.8,4.1-4.1C385.5,305.5,385.5,305.4,385.4,305.2z"/>
	<path class="st23" d="M388.8,319.5c-2.1,0-3.8-1.6-4.1-3.6c0,0.2-0.1,0.3-0.1,0.5c0,2.3,1.8,4.1,4.1,4.1s4.1-1.8,4.1-4.1
		c0-0.2,0-0.3-0.1-0.5C392.6,317.9,390.9,319.5,388.8,319.5z"/>
	<path class="st23" d="M388.8,299.6c2.2,0,4.1-1.8,4.1-4c0,0,0-0.1,0-0.1c0-0.2,0-0.3-0.1-0.5c-0.3,2.1-2,3.6-4.1,3.6
		c-2.1,0-3.8-1.6-4.1-3.6c0,0.2-0.1,0.3-0.1,0.5C384.6,297.8,386.5,299.6,388.8,299.6z"/>
	<path class="st23" d="M378.6,295.5c0-0.2,0-0.3-0.1-0.5c-0.3,2.1-2,3.6-4.1,3.6c-2.1,0-3.8-1.6-4.1-3.6c0,0.2-0.1,0.3-0.1,0.5
		c0,2.2,1.8,4.1,4,4.1c0,0,0.1,0,0.1,0C376.6,299.6,378.5,297.8,378.6,295.5z"/>
	<path class="st23" d="M414,305.2c-0.3,2.1-2,3.6-4.1,3.6c-2.1,0-3.8-1.6-4.1-3.6c0,0.2-0.1,0.3-0.1,0.5c0,2.3,1.8,4.1,4.1,4.1
		s4.1-1.8,4.1-4.1C414.1,305.5,414,305.4,414,305.2z"/>
	<path class="st23" d="M424.6,308.8c-2.1,0-3.8-1.6-4.1-3.6c0,0.2-0.1,0.3-0.1,0.5c0,2.3,1.8,4.1,4.1,4.1s4.1-1.8,4.1-4.1
		c0-0.2,0-0.3-0.1-0.5C428.4,307.3,426.7,308.9,424.6,308.8C424.6,308.8,424.6,308.8,424.6,308.8z"/>
	<path class="st23" d="M417.3,319.5c-2.1,0-3.8-1.6-4.1-3.6c0,0.2-0.1,0.3-0.1,0.5c0,2.3,1.8,4.1,4.1,4.1s4.1-1.8,4.1-4.1
		c0-0.2,0-0.3-0.1-0.5C421.1,317.9,419.4,319.5,417.3,319.5z"/>
	<path class="st23" d="M417.3,299.6c2.2,0,4.1-1.8,4.1-4c0,0,0-0.1,0-0.1c0-0.2,0-0.3-0.1-0.5c-0.3,2.1-2,3.6-4.1,3.6
		c-2.1,0-3.8-1.6-4.1-3.6c0,0.2-0.1,0.3-0.1,0.5C413.1,297.8,415,299.6,417.3,299.6z"/>
	<path class="st23" d="M431.6,298.6c-2.1,0-3.8-1.6-4.1-3.6c0,0.2-0.1,0.3-0.1,0.5c0,2.3,1.8,4.1,4.1,4.1s4.1-1.8,4.1-4.1
		c0-0.2,0-0.3-0.1-0.5C435.4,297,433.7,298.6,431.6,298.6z"/>
</g>
<path class="st24" d="M436.6,421h-67.9c-2.8,0-4.6,0.6-4.6-2.2l0,0c0-2.8,2.2-5,5-5H437c2.8,0,5,2.2,5,5l0,0
	C442.1,421.5,439.4,421,436.6,421z"/>
<path d="M408.3,418.8h-36.5c-0.5,0-0.9-0.4-0.9-0.9l0,0c0-1.1,0.9-2,2-2h34.2c1.1,0,2,0.9,2,2l0,0c0.1,0.4-0.2,0.8-0.6,0.9
	C408.4,418.8,408.4,418.8,408.3,418.8z"/>
<path d="M430.5,419.6h-4.2c-0.9,0-1.7-0.8-1.7-1.7l0,0c0-1.5,1.3-2.8,2.8-2.8h1.9c1.5,0,2.8,1.3,2.8,2.8l0,0
	c0.1,0.8-0.5,1.6-1.3,1.7C430.7,419.6,430.6,419.6,430.5,419.6z"/>
<g>
	
		<radialGradient id="SVGID_00000182530857766648834900000017961644408735431330_" cx="403" cy="195.75" r="104.0107" gradientUnits="userSpaceOnUse">
		<stop  offset="0" style="stop-color:#FFFBCC"/>
		<stop  offset="0.1146" style="stop-color:#FBF2BB"/>
		<stop  offset="0.3413" style="stop-color:#F0D98E"/>
		<stop  offset="0.3708" style="stop-color:#EED688"/>
		<stop  offset="0.6854" style="stop-color:#EBBB10"/>
		<stop  offset="1" style="stop-color:#C3922E"/>
	</radialGradient>
	<path style="fill:url(#SVGID_00000182530857766648834900000017961644408735431330_);" d="M530.4,124.3c0-1-0.9-1.9-1.9-1.9l0,0
		H277.4c-1,0-1.9,0.9-1.9,1.9v129.2c0,8.6,7,15.6,15.6,15.6h223.8c8.6,0,15.6-7,15.6-15.6V130.4L530.4,124.3z"/>
	<g class="st22">
		
			<radialGradient id="SVGID_00000083077018229853918620000013964464904037781128_" cx="403" cy="208.05" r="99.9584" gradientUnits="userSpaceOnUse">
			<stop  offset="0" style="stop-color:#FFFBCC"/>
			<stop  offset="0.1146" style="stop-color:#FBF2BB"/>
			<stop  offset="0.3413" style="stop-color:#F0D98E"/>
			<stop  offset="0.3708" style="stop-color:#EED688"/>
			<stop  offset="0.6854" style="stop-color:#EBBB10"/>
			<stop  offset="1" style="stop-color:#C3922E"/>
		</radialGradient>
		<path style="fill:url(#SVGID_00000083077018229853918620000013964464904037781128_);" d="M275.5,253.5c0,8.6,7,15.6,15.6,15.6
			h223.8c8.6,0,15.6-7,15.6-15.6V147h-255V253.5z"/>
	</g>
	<g>
		<g>
			<path d="M464.2,252.8c-5.2,0-9.1-3-14.5-8.6l-24.4-25.4l16.9-16.1c3.5-3.3,7.1-6.7,15.5-8.3l0.5-0.1v-5.1h-28v5.2l0.6,0
				c5.2,0.4,5.2,2.8,5.2,3.6c0,2.5-2.2,4.7-5.6,7.9l-16,14.5v-15.8c0-7.1,1-9,8.8-9.9l0.6-0.1v-5.4h-41.4v5.4l0.6,0.1
				c7.8,0.9,8.8,2.8,8.8,9.9v15.8l-16-14.5c-3.4-3.1-5.6-5.4-5.6-7.9c0-0.8,0-3.2,5.2-3.6l0.6,0v-5.2h-28v5.1l0.5,0.1
				c8.4,1.5,12,4.9,15.5,8.3l16.9,16.1l-24.4,25.4c-5.4,5.6-9.3,8.6-14.5,8.6H341v5.5h17.8l31-32.1l1.9,1.2v15.4c0,7.2-1,9.1-8.8,10
				l-0.6,0.1v5.4h41.4v-5.4l-0.6-0.1c-7.8-0.9-8.8-2.8-8.8-10v-15.4l1.9-1.2l31,32.1H465v-5.5H464.2z"/>
			<path d="M464.2,257c-5.2,0-9.1-3-14.5-8.6L425.2,223l16.9-16.1c3.5-3.3,7.1-6.7,15.5-8.3l0.5-0.1v-5.1h-28v5.2l0.6,0
				c5.2,0.4,5.2,2.8,5.2,3.6c0,2.5-2.2,4.7-5.6,7.9l-16,14.5v-15.8c0-7.1,1-9,8.8-9.9l0.6-0.1v-5.4h-41.4v5.4l0.6,0.1
				c7.8,0.9,8.8,2.8,8.8,9.9v15.8l-16-14.5c-3.4-3.1-5.6-5.4-5.6-7.9c0-0.8,0-3.2,5.2-3.6l0.6,0v-5.2h-28v5.1l0.5,0.1
				c8.4,1.5,12,4.9,15.5,8.3l16.9,16.1l-24.4,25.4c-5.4,5.6-9.3,8.6-14.5,8.6H341v5.5h17.8l31-32.1l1.9,1.2V247c0,7.2-1,9.1-8.8,10
				l-0.6,0.1v5.4h41.4v-5.4l-0.6-0.1c-7.8-0.9-8.8-2.8-8.8-10v-15.4l1.9-1.2l31,32.1H465V257H464.2z"/>
			<path class="st23" d="M464.2,253.5c-5.5,0-9.6-3.3-14.9-8.8l-24.9-25.9l17.3-16.6c3.6-3.4,7.4-6.9,15.8-8.4v-3.9h-26.7v3.9
				c3.9,0.3,5.8,1.7,5.8,4.2c0,2.7-2.2,5-5.8,8.3l-17,15.5v-17.2c0-7.3,1.1-9.6,9.4-10.5v-4.2h-10.5h-19.2h-10.5v4.2
				c8.2,1,9.4,3.3,9.4,10.5v17.2l-17-15.5c-3.6-3.4-5.8-5.6-5.8-8.3c0-2.5,1.9-3.9,5.8-4.2v-3.9h-26.7v3.9c8.4,1.5,12.2,5,15.8,8.4
				l17.3,16.6l-24.9,25.9c-5.4,5.6-9.5,8.8-14.9,8.8c0,0-0.1,0-0.2,0v4.2h16.9l31.2-32.3l2.6,1.7v15.7c0,7.3-1.1,9.7-9.4,10.6v4.2
				h10.5h19.2h10.5v-4.2c-8.2-1-9.4-3.4-9.4-10.6v-15.7l2.6-1.7l31.2,32.3h16.9v-4.2C464.2,253.5,464.2,253.5,464.2,253.5z"/>
		</g>
		<g>
			<polygon points="419.2,160.1 403,132.7 386.8,160.1 354.1,136.2 354.1,139.9 369,183.9 437,183.9 451.9,139.9 451.9,136.2 			"/>
			<polygon points="419.2,156.4 403,129 386.8,156.4 354.1,136.2 369,180.1 437,180.1 451.9,136.2 			"/>
			<g>
				<polygon class="st27" points="419,157.2 403,130.3 387,157.2 355.3,137.7 369.5,179.5 403,179.5 436.5,179.5 450.7,137.7 				
					"/>
				<g>
					<defs>
						<polygon id="SVGID_00000076572257225393297650000011712547418108371900_" points="419,157.2 403,130.3 387,157.2 355.3,137.7 
							369.5,179.5 403,179.5 436.5,179.5 450.7,137.7 						"/>
					</defs>
					<clipPath id="SVGID_00000020373978105681983690000010094297717807070137_">
						<use xlink:href="#SVGID_00000076572257225393297650000011712547418108371900_"  style="overflow:visible;"/>
					</clipPath>
					
						<rect x="403" y="128" style="clip-path:url(#SVGID_00000020373978105681983690000010094297717807070137_);fill:#BE9B2A;" width="49.3" height="52.5"/>
				</g>
			</g>
		</g>
	</g>
</g>
<g class="st18">
	<g class="st19">
		<g>
			<path class="st20" d="M709.9,271c-14.5,0-26.3-11.8-26.3-26.3s11.8-26.3,26.3-26.3c14.5,0,26.3,11.8,26.3,26.3l0,0
				C736.2,259.2,724.4,271,709.9,271z"/>
			<path class="st29" d="M709.9,219.5c13.9,0,25.2,11.4,25.2,25.3c0,13.9-11.4,25.2-25.3,25.2c-13.9,0-25.2-11.4-25.2-25.3
				C684.7,230.8,696,219.5,709.9,219.5 M709.9,217.5c-15.1,0-27.3,12.2-27.3,27.3c0,15.1,12.2,27.3,27.3,27.3
				c15.1,0,27.3-12.2,27.3-27.3c0,0,0,0,0,0C737.2,229.7,725,217.5,709.9,217.5z"/>
		</g>
		<path class="st30" d="M709.9,225.9c-10.4,0-18.9,8.5-18.9,18.9s8.5,18.9,18.9,18.9c10.4,0,18.9-8.5,18.9-18.9
			C728.8,234.4,720.3,225.9,709.9,225.9z M709.9,260.8c-8.8,0-16-7.2-16-16s7.2-16,16-16s16,7.2,16,16S718.7,260.8,709.9,260.8z"/>
	</g>
	<g class="st19">
		<g>
			<path class="st20" d="M652.3,328.6c-14.5,0-26.3-11.8-26.3-26.3s11.8-26.3,26.3-26.3s26.3,11.8,26.3,26.3c0,0,0,0,0,0
				C678.6,316.8,666.8,328.6,652.3,328.6z"/>
			<path class="st29" d="M652.3,277.1c14,0,25.3,11.3,25.3,25.3s-11.3,25.3-25.3,25.3c-14,0-25.3-11.3-25.3-25.3v0
				C627,288.4,638.3,277.1,652.3,277.1 M652.3,275.1c-15.1,0-27.3,12.2-27.3,27.3s12.2,27.3,27.3,27.3c15.1,0,27.3-12.2,27.3-27.3v0
				C679.6,287.3,667.4,275.1,652.3,275.1z"/>
		</g>
		<polygon class="st31" points="666.7,290 664.7,288 652.3,300.4 640,288 638,290 650.3,302.4 638,314.7 640,316.7 652.3,304.4 
			664.7,316.7 666.7,314.7 654.3,302.4 		"/>
	</g>
	<g class="st19">
		<g>
			<path class="st20" d="M594.8,271c-14.5,0-26.3-11.8-26.3-26.3s11.8-26.3,26.3-26.3c14.5,0,26.3,11.8,26.3,26.3l0,0
				C621.1,259.2,609.3,271,594.8,271z"/>
			<path class="st29" d="M594.7,219.5c13.9,0,25.2,11.4,25.2,25.3c0,13.9-11.4,25.2-25.3,25.2c-13.9,0-25.2-11.4-25.2-25.3
				C569.5,230.8,580.8,219.5,594.7,219.5 M594.7,217.5c-15.1,0-27.3,12.2-27.3,27.3c0,15.1,12.2,27.3,27.3,27.3
				c15.1,0,27.3-12.2,27.3-27.3c0,0,0,0,0,0C622,229.7,609.8,217.5,594.7,217.5z"/>
		</g>
		<path class="st32" d="M606.3,230.4h-25.8V259h28.6v-28.6H606.3z M606.3,256.3h-23v-23h23V256.3z"/>
	</g>
	<g class="st19">
		<g>
			<path class="st20" d="M652.3,213.5c-14.5,0-26.3-11.8-26.3-26.3s11.8-26.3,26.3-26.3c14.5,0,26.3,11.8,26.3,26.3l0,0
				C678.6,201.7,666.8,213.5,652.3,213.5z"/>
			<path class="st29" d="M652.3,162c14,0,25.3,11.3,25.3,25.3s-11.3,25.3-25.3,25.3c-14,0-25.3-11.3-25.3-25.3c0,0,0,0,0,0
				C627,173.3,638.3,162,652.3,162 M652.3,160c-15.1,0-27.3,12.2-27.3,27.3s12.2,27.3,27.3,27.3c15.1,0,27.3-12.2,27.3-27.3
				c0,0,0,0,0,0C679.6,172.2,667.4,160,652.3,160z"/>
		</g>
		<path class="st33" d="M668.3,195.2l-16-27.6l-16,27.6l-1.6,2.8h35.2L668.3,195.2z M652.3,195.2h-12.7l12.7-21.9l12.7,21.9H652.3z"
			/>
	</g>
</g>
<g id="Home">
	<circle class="st34" cx="403" cy="362" r="20.2"/>
	<g>
		<path class="st35" d="M404.1,368.6v-12.8c0-0.4,0.1-0.7,0.3-1c0.2-0.2,0.4-0.3,0.7-0.2c0.6,0.2,0.9,0.7,0.9,1.7v6.9
			c0.6,0.3,1.4,0.5,2.1,0.5c0.6,0,1.1-0.2,1.6-0.5c1-0.7,1.5-1.9,1.5-3.7c0.1-1.5-0.3-3.1-1.2-4.3c-1.1-1.2-2.5-2.1-4.1-2.6
			c-1.3-0.4-2.5-0.8-3.6-1.1s-2-0.5-2.9-0.7V363l0,0v2.7l0,0v1.7l0,0v2.5l0,0v1.5l4.7,1.5v-3.6l0,0V368.6z"/>
		<path class="st35" d="M399,367.6l-1.7,0.6l-0.9,0.4l-1.6,0.3l-1.5-0.2c-0.3-0.2-0.4-0.4-0.2-0.6s0.2-0.1,0.3-0.2s0.3-0.1,0.4-0.2
			l1.1-0.4l4.1-1.5v-2.7l-1.7,0.5l-5.5,2l-1,0.4c-1.5,0.6-2.2,1.2-2.2,1.8c0.1,0.8,1,1.5,2.7,1.9c1.4,0.4,2.9,0.5,4.3,0.5
			c1.1,0,2.2-0.1,3.3-0.3v-2.3L399,367.6z"/>
		<path class="st35" d="M414.8,365.3c-0.8-0.3-1.6-0.5-2.5-0.6c-0.8-0.1-1.7-0.2-2.5-0.1c-0.9,0.1-1.9,0.2-2.8,0.3
			c-0.9,0.2-1.8,0.5-2.6,0.8v2.8l3.9-1.4l1.6-0.5l1.1-0.3h1.4c0.3,0.1,0.6,0.2,0.7,0.4s-0.2,0.4-0.8,0.6l-1.4,0.5l-6.5,2.4v2.7
			l3.5-1.3l6.4-2.3l0.7-0.4c1.5-0.5,2.2-1.2,2.2-1.9S416.4,365.8,414.8,365.3z"/>
	</g>
</g>
<g>
	<g>
		<path class="st36" d="M697.2,109.9c0-0.8-0.4-1.5-1.1-1.9c-4.5-2.9-23.4-13.6-51.5-13.6c-26.9,0-41.1,5.9-45.1,8
			c-0.7,0.4-1.2,1.2-1.2,2c0,0,9.8-2.9,47.5-2.9S697.2,109.9,697.2,109.9z"/>
		<path class="st37" d="M697.1,116.8L697.1,116.8v-6.9c0,0-13.7-8.4-51.4-8.4s-47.5,2.9-47.5,2.9v11l0,0c7.7-1.3,21.2-2.6,44.1-2.6
			C670.8,112.9,688.2,115.2,697.1,116.8z"/>
	</g>
	<g>
		<path class="st36" d="M108.8,109.9c0-0.8,0.4-1.5,1.1-1.9c4.5-2.9,23.4-13.6,51.5-13.6c26.9,0,41.1,5.9,45.1,8
			c0.7,0.4,1.2,1.2,1.2,2c0,0-9.8-2.9-47.5-2.9S108.8,109.9,108.8,109.9z"/>
		<path class="st37" d="M108.9,116.8L108.9,116.8v-6.9c0,0,13.7-8.4,51.4-8.4s47.5,2.9,47.5,2.9v11l0,0c-7.7-1.3-21.2-2.6-44.1-2.6
			C135.2,112.9,117.8,115.2,108.9,116.8z"/>
	</g>
</g>
<g>
	<g>
		<g>
			<path class="st37" d="M697.2,90.8c0,0-32.7-3.2-50.6-3.2S598.2,90,598.2,90s3.1-44.7,4.8-52s7.7-21.3,16.9-27.9S631.8,0,642.6,0
				s25.4,6.4,34.6,21.4S697.2,90.8,697.2,90.8z"/>
			<path class="st36" d="M598.7,83.2c0,0,26.1-4.4,49-4.4s47.9,4.4,47.9,4.4c1,4.7,1.6,7.6,1.6,7.6s-32.7-3.2-50.6-3.2
				S598.2,90,598.2,90S598.4,87.3,598.7,83.2z"/>
		</g>
		<g class="st38">
			<path class="st23" d="M648.7,65.7l-3.2,2.6c-1.2,1.2-1.9,2.8-2,4.5h9.8v-2.6H647c0.6-0.8,1.3-1.4,2.1-1.9c1-0.6,1.9-1.3,2.7-2.1
				c0.8-0.9,1.3-2.1,1.3-3.3c0-1.3-0.5-2.5-1.4-3.3c-1-0.8-2.2-1.2-3.5-1.2c-3.1,0-4.7,1.7-4.7,5h2.7c0-1.8,0.7-2.7,2.1-2.7
				c1-0.1,1.9,0.6,2,1.6c0,0.2,0,0.3,0,0.5C650.5,63.9,649.9,64.8,648.7,65.7z"/>
			<path class="st23" d="M631.1,67.2h3c1.5,0,2.3,0.6,2.4,1.9s0.2,2.5,0.3,3.8h3.3v-0.4c-0.5-0.2-0.7-0.7-0.7-1.5
				c0-0.3,0-0.5,0.1-0.8v-0.7c0.2-1.4-0.6-2.8-1.8-3.5c1.4-0.5,2.3-1.9,2.2-3.4c0.1-1.2-0.4-2.3-1.3-3c-0.9-0.7-2-1.1-3.2-1h-7.3
				v14.3h3V67.2z M631.1,61h3.7c1.4,0,2.1,0.6,2.1,1.9c0,1.3-0.8,1.9-2.3,1.9h-3.5V61z"/>
		</g>
	</g>
	<g>
		<g>
			<path class="st37" d="M108.8,90.8c0,0,32.7-3.2,50.6-3.2s48.3,2.4,48.3,2.4s-3.1-44.7-4.8-52s-7.7-21.3-16.9-27.9
				S174.2,0,163.4,0S138,6.4,128.8,21.4S108.8,90.8,108.8,90.8z"/>
			<path class="st36" d="M207.3,83.2c0,0-26.1-4.4-49-4.4s-47.9,4.4-47.9,4.4c-1,4.7-1.6,7.6-1.6,7.6s32.7-3.2,50.6-3.2
				s48.3,2.4,48.3,2.4S207.6,87.3,207.3,83.2z"/>
		</g>
		<g class="st38">
			<path class="st23" d="M173.3,65.7l-3.2,2.6c-1.2,1.2-1.9,2.8-2,4.5h9.8v-2.6h-6.2c0.6-0.8,1.3-1.4,2.1-1.9c1-0.6,1.9-1.3,2.7-2.1
				c0.8-0.9,1.3-2.1,1.3-3.3c0-1.3-0.5-2.5-1.4-3.3c-1-0.8-2.2-1.2-3.5-1.2c-3.1,0-4.7,1.7-4.7,5h2.7c0-1.8,0.7-2.7,2.1-2.7
				c1-0.1,1.9,0.6,2,1.6c0,0.2,0,0.3,0,0.5C175.1,63.9,174.5,64.8,173.3,65.7z"/>
			<polygon class="st23" points="164.8,70.2 157.8,70.2 157.8,58.5 154.7,58.5 154.7,72.8 164.8,72.8 			"/>
		</g>
	</g>
</g>
<g>
	<g>
		<path class="st39" d="M547.6,134.6c-0.2,2.3-2.1,4-4.4,3.8c-2-0.1-3.7-1.8-3.8-3.8c0-2.1,1.7-3.8,3.8-3.8c0.1,0,0.2,0,0.3,0
			c2.1-0.2,3.9,1.3,4.1,3.4C547.6,134.3,547.6,134.5,547.6,134.6z M540.9,134.6c-0.1,1.4,0.9,2.6,2.3,2.7c0.1,0,0.2,0,0.3,0
			c1.4,0,2.6-1.1,2.6-2.5c0-0.1,0-0.2,0-0.2c0-1.4-1.2-2.6-2.6-2.6C542.1,132,540.9,133.2,540.9,134.6L540.9,134.6L540.9,134.6z"/>
		<path class="st39" d="M548.9,131h3.8c2.4,0,2.9,1.3,2.9,2.2s-0.5,2.2-2.9,2.2h-2.3v2.8h-1.5V131z M550.4,134.4h2.2
			c0.7,0,1.5-0.3,1.5-1.2s-0.7-1.2-1.5-1.2h-2.2V134.4z"/>
		<path class="st39" d="M556.1,131h6.9v1.1h-2.7v6.1h-1.5V132h-2.7V131z"/>
		<path class="st39" d="M564.1,131h1.5v7.2h-1.5V131z"/>
		<path class="st39" d="M575.1,134.6c-0.2,2.3-2.1,4-4.4,3.8c-2-0.1-3.7-1.8-3.8-3.8c0-2.1,1.7-3.8,3.8-3.8c0.1,0,0.2,0,0.3,0
			c2.1-0.2,3.9,1.3,4.1,3.4C575.1,134.3,575.1,134.5,575.1,134.6z M568.4,134.6c-0.1,1.4,0.9,2.6,2.3,2.7c0.1,0,0.2,0,0.3,0
			c1.4,0,2.6-1.1,2.6-2.5c0-0.1,0-0.2,0-0.2c0-1.4-1.2-2.6-2.6-2.6C569.6,132,568.4,133.2,568.4,134.6L568.4,134.6L568.4,134.6z"/>
		<path class="st39" d="M576.5,131h1.6l3.9,5.3l0,0V131h1.4v7.2h-1.6l-3.9-5.3l0,0v5.3h-1.4V131z"/>
		<path class="st39" d="M586.2,135.8c0,1.1,1,1.5,2.2,1.5s1.8-0.6,1.8-1.1c0-0.4-0.3-0.8-0.7-0.9c-0.6-0.2-1.4-0.3-2.6-0.6
			c-1.5-0.3-1.9-1.1-1.9-1.8c0-1.5,1.6-2.1,3.1-2.1c1.8,0,3.3,0.8,3.3,2.3h-1.5c-0.1-0.9-0.8-1.3-1.8-1.3c-0.7,0-1.6,0.2-1.6,0.9
			c0,0.5,0.4,0.8,1,0.9c0.8,0.1,1.7,0.4,2.5,0.6c0.9,0.2,1.6,0.9,1.7,1.8c0,1.6-1.7,2.3-3.4,2.3c-2,0-3.5-0.8-3.6-2.6h1.5V135.8z"/>
	</g>
	<g>
		<path class="st39" d="M222.2,135.8c0,1.1,1,1.5,2.2,1.5s1.8-0.6,1.8-1.1c0-0.4-0.3-0.8-0.7-0.9c-0.6-0.2-1.4-0.3-2.6-0.6
			c-1.5-0.3-1.9-1.1-1.9-1.8c0-1.5,1.6-2.1,3.1-2.1c1.8,0,3.3,0.8,3.3,2.3h-1.5c-0.1-0.9-0.8-1.3-1.8-1.3c-0.7,0-1.6,0.2-1.6,0.9
			c0,0.5,0.4,0.8,1,0.9c0.8,0.1,1.7,0.4,2.5,0.6c0.9,0.2,1.6,0.9,1.7,1.8c0,1.6-1.7,2.3-3.4,2.3c-2,0-3.5-0.8-3.6-2.6h1.5V135.8z"/>
		<path class="st39" d="M228.9,131h1.5v2.9h3.9V131h1.5v7.2h-1.5V135h-3.9v3.2h-1.5V131z"/>
		<path class="st39" d="M239.9,131h1.6l3.3,7.2h-1.6l-0.8-1.9H239l-0.8,1.9h-1.5L239.9,131z M239.4,135.3h2.6l-1.3-3.1l0,0
			L239.4,135.3z"/>
		<path class="st39" d="M245.6,131h4.1c1.9,0,2.8,0.7,2.8,1.9c0,0.9-0.6,1.6-1.4,1.8l0,0c0.8,0.1,1.3,0.7,1.3,1.5
			c0,0.8,0.1,1.6,0.5,1.9h-1.6c-0.2-0.3-0.2-0.7-0.2-1.1c0-1.3-0.3-1.9-1.7-1.9h-2.2v3h-1.5V131H245.6z M247.1,134.2h2.5
			c1,0,1.5-0.4,1.5-1.1c0-0.9-0.7-1.1-1.5-1.1h-2.4v2.2L247.1,134.2z"/>
		<path class="st39" d="M254.1,131h6.2v1.1h-4.7v1.9h4.3v1h-4.3v2.1h4.7v1.1h-6.2L254.1,131L254.1,131z"/>
	</g>
</g>
</svg>
