<?xml version="1.0" encoding="utf-8"?>
<!-- Generator: Adobe Illustrator 27.4.1, SVG Export Plug-In . SVG Version: 6.00 Build 0)  -->
<svg version="1.1" id="Layer_1" xmlns="http://www.w3.org/2000/svg" xmlns:xlink="http://www.w3.org/1999/xlink" x="0px" y="0px"
	 viewBox="0 0 178.5 103.9" style="enable-background:new 0 0 178.5 103.9;" xml:space="preserve">
<style type="text/css">
	.st0{fill:url(#SVGID_1_);}
	.st1{opacity:0.25;enable-background:new    ;}
</style>
<g>
	<g>
		
			<radialGradient id="SVGID_1_" cx="55.1" cy="80.5495" r="21.933" gradientTransform="matrix(1 0 0 -1 0 106)" gradientUnits="userSpaceOnUse">
			<stop  offset="0.1798" style="stop-color:#F4E8D9"/>
			<stop  offset="0.5899" style="stop-color:#EDD089"/>
			<stop  offset="1" style="stop-color:#C08329"/>
		</radialGradient>
		<path class="st0" d="M52.2,49.7c2,1.4,2.9,1.2,2.9,1.2s0.9,0.2,2.9-1.2s13.6-15,14-15.7s2.2-28.5-1.3-31.4S55.1,0,55.1,0
			S43-0.2,39.5,2.6S37.8,33.3,38.2,34S50.2,48.3,52.2,49.7z"/>
		<path class="st1" d="M52.2,49.7c2,1.4,2.9,1.2,2.9,1.2s0.9,0.2,2.9-1.2c1.3-0.9,6.6-6.9,10.3-11.2c-4.1-2.2-8.6-3.4-13.2-3.4
			s-9.2,1.1-13.2,3.4C45.6,42.8,50.9,48.8,52.2,49.7z"/>
	</g>
</g>
</svg>
