<?xml version="1.0" encoding="utf-8"?>
<!-- Generator: Adobe Illustrator 27.4.1, SVG Export Plug-In . SVG Version: 6.00 Build 0)  -->
<svg version="1.1" id="Layer_1" xmlns="http://www.w3.org/2000/svg" xmlns:xlink="http://www.w3.org/1999/xlink" x="0px" y="0px"
	 viewBox="0 0 178.5 103.9" style="enable-background:new 0 0 178.5 103.9;" xml:space="preserve">
<style type="text/css">
	.st0{fill:url(#SVGID_1_);}
	.st1{opacity:0.25;enable-background:new    ;}
</style>
<g>
	<g>
		
			<radialGradient id="SVGID_1_" cx="153.0495" cy="88.2" r="21.933" gradientTransform="matrix(1 0 0 -1 0 106)" gradientUnits="userSpaceOnUse">
			<stop  offset="0.1798" style="stop-color:#F4E8D9"/>
			<stop  offset="0.5899" style="stop-color:#EDD089"/>
			<stop  offset="1" style="stop-color:#C08329"/>
		</radialGradient>
		<path class="st0" d="M175.9,2.2c-2.9-3.5-30.7-1.7-31.4-1.3s-14.3,12-15.7,14c-1.4,2-1.2,2.9-1.2,2.9s-0.2,0.9,1.2,2.9
			s15,13.6,15.7,14s28.5,2.2,31.4-1.3s2.6-15.6,2.6-15.6S178.8,5.7,175.9,2.2z"/>
		<path class="st1" d="M140.1,4.6c-4.3,3.7-10.3,9-11.2,10.3c-1.4,2-1.2,2.9-1.2,2.9s-0.2,0.9,1.2,2.9c0.9,1.3,6.9,6.6,11.2,10.3
			c2.2-4.1,3.4-8.6,3.4-13.2S142.3,8.7,140.1,4.6z"/>
	</g>
</g>
</svg>
