<?xml version="1.0" encoding="utf-8"?>
<!-- Generator: Adobe Illustrator 27.4.1, SVG Export Plug-In . SVG Version: 6.00 Build 0)  -->
<svg version="1.1" id="Layer_1" xmlns="http://www.w3.org/2000/svg" xmlns:xlink="http://www.w3.org/1999/xlink" x="0px" y="0px"
	 viewBox="0 0 178.5 103.9" style="enable-background:new 0 0 178.5 103.9;" xml:space="preserve">
<style type="text/css">
	.st0{fill:url(#SVGID_1_);}
	.st1{opacity:0.25;enable-background:new    ;}
	.st2{fill:url(#SVGID_00000127012863980286481280000013306788686712643212_);}
	.st3{fill:url(#SVGID_00000145033635631688427880000014584803226216096397_);}
	.st4{fill:url(#SVGID_00000001634246623983174530000002999417235043649967_);}
	.st5{fill:url(#SVGID_00000030448228679386362440000015794978265269138071_);}
	.st6{opacity:0.25;fill:#FFFFFF;enable-background:new    ;}
	.st7{fill:url(#SVGID_00000018199765142544357410000016917374846246948770_);}
	.st8{fill:url(#SVGID_00000114055676834059162890000001365923893255831466_);}
	.st9{fill:url(#SVGID_00000008838059526720323840000010525999004012452026_);}
</style>
<g>
	<g>
		<radialGradient id="SVGID_1_" cx="100.2705" cy="17.72" r="21.933" gradientUnits="userSpaceOnUse">
			<stop  offset="0.1798" style="stop-color:#F4E8D9"/>
			<stop  offset="0.5899" style="stop-color:#EDD089"/>
			<stop  offset="1" style="stop-color:#C08329"/>
		</radialGradient>
		<path class="st0" d="M124.5,20.6c1.4-2,1.2-2.9,1.2-2.9s0.2-0.9-1.2-2.9s-15-13.6-15.7-14S80.3-1.4,77.4,2.1s-2.6,15.6-2.6,15.6
			s-0.3,12.1,2.6,15.6s30.7,1.7,31.4,1.3S123.1,22.6,124.5,20.6z"/>
		<path class="st1" d="M124.5,20.6c1.4-2,1.2-2.9,1.2-2.9s0.2-0.9-1.2-2.9c-0.9-1.3-6.9-6.6-11.2-10.3c-2.2,4.1-3.4,8.6-3.4,13.2
			c0,4.6,1.1,9.2,3.4,13.2C117.6,27.2,123.6,21.9,124.5,20.6z"/>
	</g>
	<g>
		
			<radialGradient id="SVGID_00000158009827682539218150000008011714061082084993_" cx="55.12" cy="25.4705" r="21.933" gradientUnits="userSpaceOnUse">
			<stop  offset="0.1798" style="stop-color:#F4E8D9"/>
			<stop  offset="0.5899" style="stop-color:#EDD089"/>
			<stop  offset="1" style="stop-color:#C08329"/>
		</radialGradient>
		<path style="fill:url(#SVGID_00000158009827682539218150000008011714061082084993_);" d="M52.2,49.7c2,1.4,2.9,1.2,2.9,1.2
			s0.9,0.2,2.9-1.2s13.6-15,14-15.7s2.2-28.5-1.3-31.4S55.1,0,55.1,0S43-0.2,39.5,2.6S37.8,33.3,38.2,34S50.2,48.3,52.2,49.7z"/>
		<path class="st1" d="M52.2,49.7c2,1.4,2.9,1.2,2.9,1.2s0.9,0.2,2.9-1.2c1.3-0.9,6.6-6.9,10.3-11.2c-4.1-2.2-8.6-3.4-13.2-3.4
			c-4.6,0-9.2,1.1-13.2,3.4C45.6,42.8,50.9,48.8,52.2,49.7z"/>
	</g>
	<g>
		
			<radialGradient id="SVGID_00000154388242328153464710000006976965086507309729_" cx="153.0695" cy="17.82" r="21.933" gradientUnits="userSpaceOnUse">
			<stop  offset="0.1798" style="stop-color:#F4E8D9"/>
			<stop  offset="0.5899" style="stop-color:#EDD089"/>
			<stop  offset="1" style="stop-color:#C08329"/>
		</radialGradient>
		<path style="fill:url(#SVGID_00000154388242328153464710000006976965086507309729_);" d="M175.9,2.2c-2.9-3.5-30.7-1.7-31.4-1.3
			s-14.3,12-15.7,14c-1.4,2-1.2,2.9-1.2,2.9s-0.2,0.9,1.2,2.9c1.4,2,15,13.6,15.7,14s28.5,2.2,31.4-1.3s2.6-15.6,2.6-15.6
			S178.8,5.7,175.9,2.2z"/>
		<path class="st1" d="M140.1,4.6c-4.3,3.7-10.3,9-11.2,10.3c-1.4,2-1.2,2.9-1.2,2.9s-0.2,0.9,1.2,2.9c0.9,1.3,6.9,6.6,11.2,10.3
			c2.2-4.1,3.4-8.6,3.4-13.2C143.5,13.2,142.3,8.7,140.1,4.6z"/>
	</g>
	<g>
		
			<radialGradient id="SVGID_00000078742180143540353590000018207028591433771137_" cx="17.72" cy="25.4695" r="21.933" gradientUnits="userSpaceOnUse">
			<stop  offset="0.1798" style="stop-color:#F4E8D9"/>
			<stop  offset="0.5899" style="stop-color:#EDD089"/>
			<stop  offset="1" style="stop-color:#C08329"/>
		</radialGradient>
		<path style="fill:url(#SVGID_00000078742180143540353590000018207028591433771137_);" d="M20.6,1.2c-2-1.4-2.9-1.2-2.9-1.2
			s-0.9-0.2-2.9,1.2s-13.6,15-14,15.7s-2.2,28.5,1.3,31.4s15.6,2.6,15.6,2.6s12.1,0.3,15.6-2.6s1.7-30.7,1.3-31.4S22.6,2.6,20.6,1.2
			z"/>
		<path class="st1" d="M20.6,1.2c-2-1.4-2.9-1.2-2.9-1.2s-0.9-0.2-2.9,1.2C13.5,2.1,8.2,8.1,4.5,12.4c4.1,2.2,8.6,3.4,13.2,3.4
			c4.6,0,9.2-1.1,13.2-3.4C27.2,8.1,21.9,2.1,20.6,1.2z"/>
	</g>
</g>
<g>
	<g>
		
			<radialGradient id="SVGID_00000164478793597784045450000009673715087731542957_" cx="100.2705" cy="70.72" r="21.933" gradientUnits="userSpaceOnUse">
			<stop  offset="0" style="stop-color:#FFFBCC"/>
			<stop  offset="0.1146" style="stop-color:#FBF2BB"/>
			<stop  offset="0.3413" style="stop-color:#F0D98E"/>
			<stop  offset="0.3708" style="stop-color:#EED688"/>
			<stop  offset="0.6854" style="stop-color:#EBBB10"/>
			<stop  offset="1" style="stop-color:#C3922E"/>
		</radialGradient>
		<path style="fill:url(#SVGID_00000164478793597784045450000009673715087731542957_);" d="M124.5,73.6c1.4-2,1.2-2.9,1.2-2.9
			s0.2-0.9-1.2-2.9s-15-13.6-15.7-14s-28.5-2.2-31.4,1.3s-2.6,15.6-2.6,15.6s-0.3,12.1,2.6,15.6s30.7,1.7,31.4,1.3
			S123.1,75.6,124.5,73.6z"/>
		<path class="st6" d="M124.5,73.6c1.4-2,1.2-2.9,1.2-2.9s0.2-0.9-1.2-2.9c-0.9-1.3-6.9-6.6-11.2-10.3c-2.2,4.1-3.4,8.6-3.4,13.2
			c0,4.6,1.1,9.2,3.4,13.2C117.6,80.2,123.6,74.9,124.5,73.6z"/>
	</g>
	<g>
		
			<radialGradient id="SVGID_00000054234475437082677570000008934605829510993061_" cx="55.12" cy="78.4705" r="21.933" gradientUnits="userSpaceOnUse">
			<stop  offset="0" style="stop-color:#FFFBCC"/>
			<stop  offset="0.1146" style="stop-color:#FBF2BB"/>
			<stop  offset="0.3413" style="stop-color:#F0D98E"/>
			<stop  offset="0.3708" style="stop-color:#EED688"/>
			<stop  offset="0.6854" style="stop-color:#EBBB10"/>
			<stop  offset="1" style="stop-color:#C3922E"/>
		</radialGradient>
		<path style="fill:url(#SVGID_00000054234475437082677570000008934605829510993061_);" d="M52.2,102.7c2,1.4,2.9,1.2,2.9,1.2
			s0.9,0.2,2.9-1.2s13.6-15,14-15.7s2.2-28.5-1.3-31.4S55.1,53,55.1,53S43,52.8,39.5,55.6S37.8,86.3,38.2,87S50.2,101.3,52.2,102.7z
			"/>
		<path class="st6" d="M52.2,102.7c2,1.4,2.9,1.2,2.9,1.2s0.9,0.2,2.9-1.2c1.3-0.9,6.6-6.9,10.3-11.2c-4.1-2.2-8.6-3.4-13.2-3.4
			c-4.6,0-9.2,1.1-13.2,3.4C45.6,95.8,50.9,101.8,52.2,102.7z"/>
	</g>
	<g>
		
			<radialGradient id="SVGID_00000147203837988048536840000012582943594264854937_" cx="153.0695" cy="70.72" r="21.933" gradientUnits="userSpaceOnUse">
			<stop  offset="0" style="stop-color:#FFFBCC"/>
			<stop  offset="0.1146" style="stop-color:#FBF2BB"/>
			<stop  offset="0.3413" style="stop-color:#F0D98E"/>
			<stop  offset="0.3708" style="stop-color:#EED688"/>
			<stop  offset="0.6854" style="stop-color:#EBBB10"/>
			<stop  offset="1" style="stop-color:#C3922E"/>
		</radialGradient>
		<path style="fill:url(#SVGID_00000147203837988048536840000012582943594264854937_);" d="M175.9,55.1c-2.9-3.5-30.7-1.7-31.4-1.3
			s-14.3,12-15.7,14c-1.4,2-1.2,2.9-1.2,2.9s-0.2,0.9,1.2,2.9c1.4,2,15,13.6,15.7,14s28.5,2.2,31.4-1.3s2.6-15.6,2.6-15.6
			S178.8,58.6,175.9,55.1z"/>
		<path class="st6" d="M140.1,57.6c-4.3,3.7-10.3,9-11.2,10.3c-1.4,2-1.2,2.9-1.2,2.9s-0.2,0.9,1.2,2.9c0.9,1.3,6.9,6.6,11.2,10.3
			C144.7,75.8,144.7,65.8,140.1,57.6z"/>
	</g>
	<g>
		
			<radialGradient id="SVGID_00000140735996671424553660000005235050723884922501_" cx="17.72" cy="78.4695" r="21.933" gradientUnits="userSpaceOnUse">
			<stop  offset="0" style="stop-color:#FFFBCC"/>
			<stop  offset="0.1146" style="stop-color:#FBF2BB"/>
			<stop  offset="0.3413" style="stop-color:#F0D98E"/>
			<stop  offset="0.3708" style="stop-color:#EED688"/>
			<stop  offset="0.6854" style="stop-color:#EBBB10"/>
			<stop  offset="1" style="stop-color:#C3922E"/>
		</radialGradient>
		<path style="fill:url(#SVGID_00000140735996671424553660000005235050723884922501_);" d="M20.6,54.2c-2-1.4-2.9-1.2-2.9-1.2
			s-0.9-0.2-2.9,1.2s-13.6,15-14,15.7s-2.2,28.5,1.3,31.4s15.6,2.6,15.6,2.6s12.1,0.3,15.6-2.6s1.7-30.7,1.3-31.4
			S22.6,55.6,20.6,54.2z"/>
		<path class="st6" d="M20.6,54.2c-2-1.4-2.9-1.2-2.9-1.2s-0.9-0.2-2.9,1.2c-1.3,0.9-6.6,6.9-10.3,11.2c4.1,2.2,8.6,3.4,13.2,3.4
			c4.6,0,9.2-1.1,13.2-3.4C27.2,61.1,21.9,55.1,20.6,54.2z"/>
	</g>
</g>
</svg>
