<?xml version="1.0" encoding="utf-8"?>
<!-- Generator: Adobe Illustrator 27.4.1, SVG Export Plug-In . SVG Version: 6.00 Build 0)  -->
<svg version="1.1" id="Layer_1" xmlns="http://www.w3.org/2000/svg" xmlns:xlink="http://www.w3.org/1999/xlink" x="0px" y="0px"
	 viewBox="0 0 224 112.4" style="enable-background:new 0 0 224 112.4;" xml:space="preserve">
<style type="text/css">
	.st0{fill:url(#SVGID_1_);}
	.st1{fill:#F0F0F0;}
	.st2{fill:#FFFFFF;}
	.st3{fill:url(#SVGID_00000080920653756024627530000013820177892520081848_);}
	.st4{fill:url(#SVGID_00000031921111636766249900000010167440011792833199_);}
	.st5{fill:url(#SVGID_00000049200267914144029090000014232483420971692962_);}
	.st6{fill:url(#SVGID_00000068662274573487691590000012606674304144328600_);}
	.st7{fill:#0F0F0F;}
	.st8{fill:url(#SVGID_00000158030047632658472410000015374976671131497096_);}
	.st9{fill:url(#SVGID_00000046341105522674504860000006949379961773265341_);}
	.st10{fill:url(#SVGID_00000107589355974132062800000004275325353843335081_);}
</style>
<g>
	<g>
		<g>
			<radialGradient id="SVGID_1_" cx="83.75" cy="85.05" r="26.25" gradientUnits="userSpaceOnUse">
				<stop  offset="0" style="stop-color:#FFFBCC"/>
				<stop  offset="0.1146" style="stop-color:#FBF2BB"/>
				<stop  offset="0.3413" style="stop-color:#F0D98E"/>
				<stop  offset="0.3708" style="stop-color:#EED688"/>
				<stop  offset="0.6854" style="stop-color:#EBBB10"/>
				<stop  offset="1" style="stop-color:#C3922E"/>
			</radialGradient>
			<path class="st0" d="M83.8,111.3c-14.5,0-26.3-11.7-26.3-26.2c0-14.5,11.7-26.3,26.2-26.3C98.2,58.8,110,70.5,110,85
				c0,0,0,0.1,0,0.1C109.9,99.5,98.2,111.2,83.8,111.3z"/>
			<path class="st1" d="M83.8,59.8c13.9,0,25.2,11.4,25.2,25.3s-11.4,25.2-25.3,25.2c-13.9,0-25.2-11.3-25.2-25.2
				C58.5,71.1,69.8,59.8,83.8,59.8 M83.8,57.8c-15,0-27.3,12.2-27.3,27.2s12.2,27.3,27.2,27.3c15,0,27.3-12.2,27.3-27.2
				C111,70.1,98.8,57.9,83.8,57.8z"/>
		</g>
		<path class="st2" d="M83.8,66.2c-10.4,0-18.9,8.5-18.9,18.9S73.4,104,83.8,104s18.9-8.5,18.9-18.9C102.7,74.7,94.2,66.2,83.8,66.2
			z M83.8,101.1c-8.8,0-16-7.2-16-16s7.2-16,16-16s16,7.2,16,16S92.6,101.1,83.8,101.1z"/>
	</g>
	<g>
		<g>
			
				<radialGradient id="SVGID_00000126299363773247701380000010569222917143475603_" cx="27.4" cy="85.1007" r="26.2" gradientUnits="userSpaceOnUse">
				<stop  offset="0" style="stop-color:#FFFBCC"/>
				<stop  offset="0.1146" style="stop-color:#FBF2BB"/>
				<stop  offset="0.3413" style="stop-color:#F0D98E"/>
				<stop  offset="0.3708" style="stop-color:#EED688"/>
				<stop  offset="0.6854" style="stop-color:#EBBB10"/>
				<stop  offset="1" style="stop-color:#C3922E"/>
			</radialGradient>
			<path style="fill:url(#SVGID_00000126299363773247701380000010569222917143475603_);" d="M27.2,111.3
				c-14.5-0.1-26.1-11.9-26-26.4s11.9-26.1,26.4-26c14.4,0.1,26,11.8,26,26.2c0,14.5-11.8,26.2-26.3,26.2
				C27.3,111.3,27.2,111.3,27.2,111.3z"/>
			<path class="st1" d="M27.3,59.8c13.9,0,25.2,11.4,25.2,25.3s-11.4,25.2-25.3,25.2C13.3,110.3,2,99,2,85.1
				C2,71.1,13.3,59.8,27.3,59.8 M27.3,57.8C12.2,57.8,0,70,0,85.1s12.2,27.3,27.3,27.3s27.3-12.2,27.3-27.3l0,0
				C54.6,70,42.4,57.8,27.3,57.8z"/>
		</g>
		<polygon class="st2" points="41.6,72.7 39.6,70.7 27.3,83.1 14.9,70.7 12.9,72.7 25.2,85.1 12.9,97.4 14.9,99.5 27.3,87.1 
			39.6,99.5 41.6,97.4 29.3,85.1 		"/>
	</g>
	<g>
		<g>
			
				<radialGradient id="SVGID_00000134931481964489820490000007475966084620108950_" cx="140.3501" cy="85.05" r="26.25" gradientUnits="userSpaceOnUse">
				<stop  offset="0" style="stop-color:#FFFBCC"/>
				<stop  offset="0.1146" style="stop-color:#FBF2BB"/>
				<stop  offset="0.3413" style="stop-color:#F0D98E"/>
				<stop  offset="0.3708" style="stop-color:#EED688"/>
				<stop  offset="0.6854" style="stop-color:#EBBB10"/>
				<stop  offset="1" style="stop-color:#C3922E"/>
			</radialGradient>
			<path style="fill:url(#SVGID_00000134931481964489820490000007475966084620108950_);" d="M140.3,111.3
				c-14.5,0-26.2-11.8-26.2-26.3c0-14.5,11.8-26.2,26.3-26.2c14.5,0,26.2,11.7,26.2,26.2c0,14.5-11.7,26.3-26.2,26.3
				C140.4,111.3,140.3,111.3,140.3,111.3z"/>
			<path class="st1" d="M140.3,59.8c13.9,0,25.2,11.4,25.2,25.3c0,13.9-11.4,25.2-25.3,25.2c-13.9,0-25.2-11.3-25.2-25.2
				C115,71.1,126.3,59.8,140.3,59.8 M140.3,57.8c-15,0-27.2,12.3-27.2,27.3s12.3,27.2,27.3,27.2c15,0,27.2-12.3,27.2-27.3
				C167.5,70,155.3,57.8,140.3,57.8z"/>
		</g>
		<path class="st2" d="M151.8,70.7H126v28.6h28.6V70.7H151.8z M151.8,96.6h-23v-23h23V96.6z"/>
	</g>
	<g>
		<g>
			
				<radialGradient id="SVGID_00000065037974724202070710000011682060054285644973_" cx="196.75" cy="85.05" r="26.25" gradientUnits="userSpaceOnUse">
				<stop  offset="0" style="stop-color:#FFFBCC"/>
				<stop  offset="0.1146" style="stop-color:#FBF2BB"/>
				<stop  offset="0.3413" style="stop-color:#F0D98E"/>
				<stop  offset="0.3708" style="stop-color:#EED688"/>
				<stop  offset="0.6854" style="stop-color:#EBBB10"/>
				<stop  offset="1" style="stop-color:#C3922E"/>
			</radialGradient>
			<path style="fill:url(#SVGID_00000065037974724202070710000011682060054285644973_);" d="M196.7,111.3
				c-14.5,0-26.2-11.8-26.2-26.3c0-14.5,11.8-26.2,26.3-26.2c14.5,0,26.2,11.8,26.2,26.3C222.9,99.6,211.2,111.3,196.7,111.3z"/>
			<path class="st1" d="M196.8,59.8c13.9,0,25.2,11.4,25.2,25.3c0,13.9-11.4,25.2-25.3,25.2c-13.9,0-25.2-11.3-25.2-25.2
				C171.5,71.1,182.8,59.8,196.8,59.8 M196.8,57.8c-15,0-27.3,12.2-27.3,27.2s12.2,27.3,27.2,27.3c15,0,27.3-12.2,27.3-27.2
				C224,70.1,211.8,57.9,196.8,57.8z"/>
		</g>
		<path class="st2" d="M212.7,93.1l-16-27.6l-16,27.6l-1.6,2.8h35.2L212.7,93.1z M196.8,93.1h-12.7l12.7-21.9l12.7,21.9H196.8z"/>
	</g>
</g>
<g>
	<g>
		<g>
			
				<radialGradient id="SVGID_00000084510045674527397880000012194945956556187799_" cx="83.75" cy="27.25" r="26.25" gradientUnits="userSpaceOnUse">
				<stop  offset="0.1798" style="stop-color:#F4E8D9"/>
				<stop  offset="0.5899" style="stop-color:#EDD089"/>
				<stop  offset="1" style="stop-color:#C08329"/>
			</radialGradient>
			<path style="fill:url(#SVGID_00000084510045674527397880000012194945956556187799_);" d="M83.8,53.5c-14.5,0-26.3-11.7-26.3-26.2
				S69.2,1,83.7,1C98.2,1,110,12.7,110,27.2C110,41.7,98.3,53.4,83.8,53.5z"/>
			<path class="st7" d="M83.8,2C97.7,2,109,13.4,109,27.3S97.6,52.5,83.7,52.5c-13.9,0-25.2-11.3-25.2-25.2C58.5,13.4,69.7,2,83.7,2
				C83.7,2,83.8,2,83.8,2 M83.8,0C68.7-0.1,56.5,12.1,56.4,27.2s12.1,27.3,27.2,27.4s27.3-12.1,27.4-27.2c0,0,0-0.1,0-0.1
				C111,12.3,98.8,0.1,83.8,0z"/>
		</g>
		<path d="M83.8,8.4c-10.4,0-18.9,8.5-18.9,18.9s8.5,18.9,18.9,18.9s18.9-8.5,18.9-18.9C102.7,16.9,94.2,8.4,83.8,8.4z M83.8,43.3
			c-8.8,0-16-7.2-16-16s7.2-16,16-16s16,7.2,16,16S92.6,43.3,83.8,43.3z"/>
	</g>
	<g>
		<g>
			
				<radialGradient id="SVGID_00000036967936396647230390000017912091408212349864_" cx="27.25" cy="27.25" r="26.25" gradientUnits="userSpaceOnUse">
				<stop  offset="0.1798" style="stop-color:#F4E8D9"/>
				<stop  offset="0.5899" style="stop-color:#EDD089"/>
				<stop  offset="1" style="stop-color:#C08329"/>
			</radialGradient>
			<path style="fill:url(#SVGID_00000036967936396647230390000017912091408212349864_);" d="M27.2,53.5C12.7,53.5,1,41.7,1,27.2
				S12.8,1,27.3,1c14.5,0,26.2,11.8,26.2,26.3C53.5,41.8,41.7,53.5,27.2,53.5z"/>
			<path class="st7" d="M27.3,2c13.9,0,25.2,11.4,25.2,25.3S41.1,52.5,27.2,52.5C13.3,52.5,2,41.2,2,27.3C2,13.3,13.3,2,27.3,2
				 M27.3,0C12.2,0,0,12.2,0,27.3s12.2,27.3,27.3,27.3s27.3-12.2,27.3-27.3l0,0C54.6,12.2,42.4,0,27.3,0C27.3,0,27.3,0,27.3,0z"/>
		</g>
		<polygon points="41.6,14.9 39.6,12.9 27.3,25.2 14.9,12.9 12.9,14.9 25.2,27.2 12.9,39.6 14.9,41.6 27.3,29.3 39.6,41.6 
			41.6,39.6 29.3,27.2 		"/>
	</g>
	<g>
		<g>
			
				<radialGradient id="SVGID_00000010278969531254034470000008085986300160676741_" cx="140.3501" cy="27.9501" r="26.25" gradientUnits="userSpaceOnUse">
				<stop  offset="0.1798" style="stop-color:#F4E8D9"/>
				<stop  offset="0.5899" style="stop-color:#EDD089"/>
				<stop  offset="1" style="stop-color:#C08329"/>
			</radialGradient>
			<path style="fill:url(#SVGID_00000010278969531254034470000008085986300160676741_);" d="M140.3,54.2
				c-14.5,0-26.2-11.8-26.2-26.3c0-14.5,11.8-26.2,26.3-26.2c14.5,0,26.2,11.8,26.2,26.3C166.6,42.5,154.8,54.2,140.3,54.2
				C140.3,54.2,140.3,54.2,140.3,54.2z"/>
			<path class="st7" d="M140.3,2.7c13.9,0,25.2,11.4,25.2,25.3c0,13.9-11.4,25.2-25.3,25.2c-13.9,0-25.2-11.4-25.2-25.3
				C115.1,14,126.4,2.7,140.3,2.7 M140.3,0.7c-15,0-27.2,12.3-27.2,27.3s12.3,27.2,27.3,27.2c15,0,27.2-12.2,27.2-27.2
				C167.6,12.9,155.4,0.7,140.3,0.7z"/>
		</g>
		<path d="M151.8,13.5H126v28.6h28.6V13.5H151.8z M151.8,39.4h-23v-23h23V39.4z"/>
	</g>
	<g>
		<g>
			
				<radialGradient id="SVGID_00000178910474457142733470000002828430901782502588_" cx="196.7002" cy="28.5" r="26.3" gradientUnits="userSpaceOnUse">
				<stop  offset="0.1798" style="stop-color:#F4E8D9"/>
				<stop  offset="0.5899" style="stop-color:#EDD089"/>
				<stop  offset="1" style="stop-color:#C08329"/>
			</radialGradient>
			<path style="fill:url(#SVGID_00000178910474457142733470000002828430901782502588_);" d="M196.7,54.8
				c-14.5,0-26.3-11.8-26.3-26.3s11.8-26.3,26.3-26.3C211.2,2.2,223,14,223,28.5c0,0,0,0.1,0,0.1C222.9,43.1,211.2,54.8,196.7,54.8z
				"/>
			<path class="st7" d="M196.8,3.3c14,0,25.3,11.3,25.3,25.3s-11.3,25.3-25.3,25.3c-14,0-25.3-11.3-25.3-25.3
				C171.5,14.6,182.8,3.3,196.8,3.3 M196.8,1.3c-15.1-0.1-27.3,12.1-27.4,27.2c-0.1,15.1,12.1,27.3,27.2,27.4
				c15.1,0.1,27.3-12.1,27.4-27.2c0,0,0-0.1,0-0.1C224,13.6,211.8,1.4,196.8,1.3z"/>
		</g>
		<path d="M212.7,36.6L196.7,9l-16,27.6l-1.6,2.8h35.2L212.7,36.6z M196.8,36.6h-12.7l12.7-21.9l12.7,21.9H196.8z"/>
	</g>
</g>
</svg>
