<?xml version="1.0" encoding="utf-8"?>
<!-- Generator: Adobe Illustrator 27.4.1, SVG Export Plug-In . SVG Version: 6.00 Build 0)  -->
<svg version="1.1" id="Layer_1" xmlns="http://www.w3.org/2000/svg" xmlns:xlink="http://www.w3.org/1999/xlink" x="0px" y="0px"
	 viewBox="0 0 224 112.4" style="enable-background:new 0 0 224 112.4;" xml:space="preserve">
<style type="text/css">
	.st0{fill:url(#SVGID_1_);}
	.st1{fill:#0F0F0F;}
</style>
<g>
	<g>
		<g>
			
				<radialGradient id="SVGID_1_" cx="27.25" cy="86.75" r="26.25" gradientTransform="matrix(1 0 0 -1 0 114)" gradientUnits="userSpaceOnUse">
				<stop  offset="0.1798" style="stop-color:#F4E8D9"/>
				<stop  offset="0.5899" style="stop-color:#EDD089"/>
				<stop  offset="1" style="stop-color:#C08329"/>
			</radialGradient>
			<path class="st0" d="M27.2,53.5C12.7,53.5,1,41.7,1,27.2S12.8,1,27.3,1s26.2,11.8,26.2,26.3S41.7,53.5,27.2,53.5z"/>
			<path class="st1" d="M27.3,2c13.9,0,25.2,11.4,25.2,25.3S41.1,52.5,27.2,52.5S2,41.2,2,27.3C2,13.3,13.3,2,27.3,2 M27.3,0
				C12.2,0,0,12.2,0,27.3s12.2,27.3,27.3,27.3s27.3-12.2,27.3-27.3l0,0C54.6,12.2,42.4,0,27.3,0L27.3,0z"/>
		</g>
		<polygon points="41.6,14.9 39.6,12.9 27.3,25.2 14.9,12.9 12.9,14.9 25.2,27.2 12.9,39.6 14.9,41.6 27.3,29.3 39.6,41.6 
			41.6,39.6 29.3,27.2 		"/>
	</g>
</g>
</svg>
