<?xml version="1.0" encoding="utf-8"?>
<!-- Generator: Adobe Illustrator 27.4.1, SVG Export Plug-In . SVG Version: 6.00 Build 0)  -->
<svg version="1.1" id="Layer_1" xmlns="http://www.w3.org/2000/svg" xmlns:xlink="http://www.w3.org/1999/xlink" x="0px" y="0px"
	 viewBox="0 0 224 112.4" style="enable-background:new 0 0 224 112.4;" xml:space="preserve">
<style type="text/css">
	.st0{fill:url(#SVGID_1_);}
	.st1{fill:#F0F0F0;}
	.st2{fill:#FFFFFF;}
</style>
<g>
	<g>
		<g>
			
				<radialGradient id="SVGID_1_" cx="196.75" cy="28.95" r="26.25" gradientTransform="matrix(1 0 0 -1 0 114)" gradientUnits="userSpaceOnUse">
				<stop  offset="0" style="stop-color:#FFFBCC"/>
				<stop  offset="0.1146" style="stop-color:#FBF2BB"/>
				<stop  offset="0.3413" style="stop-color:#F0D98E"/>
				<stop  offset="0.3708" style="stop-color:#EED688"/>
				<stop  offset="0.6854" style="stop-color:#EBBB10"/>
				<stop  offset="1" style="stop-color:#C3922E"/>
			</radialGradient>
			<path class="st0" d="M196.7,111.3c-14.5,0-26.2-11.8-26.2-26.3s11.8-26.2,26.3-26.2S223,70.6,223,85.1
				C222.9,99.6,211.2,111.3,196.7,111.3z"/>
			<path class="st1" d="M196.8,59.8c13.9,0,25.2,11.4,25.2,25.3s-11.4,25.2-25.3,25.2c-13.9,0-25.2-11.3-25.2-25.2
				C171.5,71.1,182.8,59.8,196.8,59.8 M196.8,57.8c-15,0-27.3,12.2-27.3,27.2s12.2,27.3,27.2,27.3S224,100.1,224,85.1
				S211.8,57.9,196.8,57.8z"/>
		</g>
		<path class="st2" d="M212.7,93.1l-16-27.6l-16,27.6l-1.6,2.8h35.2L212.7,93.1z M196.8,93.1h-12.7l12.7-21.9l12.7,21.9H196.8z"/>
	</g>
</g>
</svg>
