<?xml version="1.0" encoding="utf-8"?>
<!-- Generator: Adobe Illustrator 27.4.1, SVG Export Plug-In . SVG Version: 6.00 Build 0)  -->
<svg version="1.1" id="Layer_1" xmlns="http://www.w3.org/2000/svg" xmlns:xlink="http://www.w3.org/1999/xlink" x="0px" y="0px"
	 viewBox="0 0 224 112.4" style="enable-background:new 0 0 224 112.4;" xml:space="preserve">
<style type="text/css">
	.st0{fill:url(#SVGID_1_);}
	.st1{fill:#0F0F0F;}
</style>
<g>
	<g>
		<g>
			
				<radialGradient id="SVGID_1_" cx="140.35" cy="86.05" r="26.25" gradientTransform="matrix(1 0 0 -1 0 114)" gradientUnits="userSpaceOnUse">
				<stop  offset="0.1798" style="stop-color:#F4E8D9"/>
				<stop  offset="0.5899" style="stop-color:#EDD089"/>
				<stop  offset="1" style="stop-color:#C08329"/>
			</radialGradient>
			<path class="st0" d="M140.3,54.2c-14.5,0-26.2-11.8-26.2-26.3s11.8-26.2,26.3-26.2s26.2,11.8,26.2,26.3S154.8,54.2,140.3,54.2
				L140.3,54.2z"/>
			<path class="st1" d="M140.3,2.7c13.9,0,25.2,11.4,25.2,25.3s-11.4,25.2-25.3,25.2S115,41.8,115,27.9
				C115.1,14,126.4,2.7,140.3,2.7 M140.3,0.7c-15,0-27.2,12.3-27.2,27.3s12.3,27.2,27.3,27.2S167.6,43,167.6,28
				C167.6,12.9,155.4,0.7,140.3,0.7z"/>
		</g>
		<path d="M151.8,13.5H126v28.6h28.6V13.5H151.8z M151.8,39.4h-23v-23h23V39.4z"/>
	</g>
</g>
</svg>
