<?xml version="1.0" encoding="utf-8"?>
<!-- Generator: Adobe Illustrator 27.4.1, SVG Export Plug-In . SVG Version: 6.00 Build 0)  -->
<svg version="1.1" id="Layer_1" xmlns="http://www.w3.org/2000/svg" xmlns:xlink="http://www.w3.org/1999/xlink" x="0px" y="0px"
	 viewBox="0 0 224 112.4" style="enable-background:new 0 0 224 112.4;" xml:space="preserve">
<style type="text/css">
	.st0{fill:url(#SVGID_1_);}
	.st1{fill:#F0F0F0;}
	.st2{fill:#FFFFFF;}
</style>
<g>
	<g>
		<g>
			
				<radialGradient id="SVGID_1_" cx="140.35" cy="28.95" r="26.25" gradientTransform="matrix(1 0 0 -1 0 114)" gradientUnits="userSpaceOnUse">
				<stop  offset="0" style="stop-color:#FFFBCC"/>
				<stop  offset="0.1146" style="stop-color:#FBF2BB"/>
				<stop  offset="0.3413" style="stop-color:#F0D98E"/>
				<stop  offset="0.3708" style="stop-color:#EED688"/>
				<stop  offset="0.6854" style="stop-color:#EBBB10"/>
				<stop  offset="1" style="stop-color:#C3922E"/>
			</radialGradient>
			<path class="st0" d="M140.3,111.3c-14.5,0-26.2-11.8-26.2-26.3s11.8-26.2,26.3-26.2s26.2,11.7,26.2,26.2s-11.7,26.3-26.2,26.3
				C140.4,111.3,140.3,111.3,140.3,111.3z"/>
			<path class="st1" d="M140.3,59.8c13.9,0,25.2,11.4,25.2,25.3s-11.4,25.2-25.3,25.2S115,99,115,85.1
				C115,71.1,126.3,59.8,140.3,59.8 M140.3,57.8c-15,0-27.2,12.3-27.2,27.3s12.3,27.2,27.3,27.2S167.6,100,167.6,85
				C167.5,70,155.3,57.8,140.3,57.8z"/>
		</g>
		<path class="st2" d="M151.8,70.7H126v28.6h28.6V70.7H151.8z M151.8,96.6h-23v-23h23V96.6z"/>
	</g>
</g>
</svg>
