<?xml version="1.0" encoding="utf-8"?>
<!-- Generator: Adobe Illustrator 27.4.1, SVG Export Plug-In . SVG Version: 6.00 Build 0)  -->
<svg version="1.1" id="Layer_1" xmlns="http://www.w3.org/2000/svg" xmlns:xlink="http://www.w3.org/1999/xlink" x="0px" y="0px"
	 viewBox="0 0 224 112.4" style="enable-background:new 0 0 224 112.4;" xml:space="preserve">
<style type="text/css">
	.st0{fill:url(#SVGID_1_);}
	.st1{fill:#0F0F0F;}
</style>
<g>
	<g>
		<g>
			
				<radialGradient id="SVGID_1_" cx="196.7" cy="85.5" r="26.3" gradientTransform="matrix(1 0 0 -1 0 114)" gradientUnits="userSpaceOnUse">
				<stop  offset="0.1798" style="stop-color:#F4E8D9"/>
				<stop  offset="0.5899" style="stop-color:#EDD089"/>
				<stop  offset="1" style="stop-color:#C08329"/>
			</radialGradient>
			<path class="st0" d="M196.7,54.8c-14.5,0-26.3-11.8-26.3-26.3s11.8-26.3,26.3-26.3C211.2,2.2,223,14,223,28.5v0.1
				C222.9,43.1,211.2,54.8,196.7,54.8z"/>
			<path class="st1" d="M196.8,3.3c14,0,25.3,11.3,25.3,25.3s-11.3,25.3-25.3,25.3s-25.3-11.3-25.3-25.3S182.8,3.3,196.8,3.3
				 M196.8,1.3c-15.1-0.1-27.3,12.1-27.4,27.2c-0.1,15.1,12.1,27.3,27.2,27.4c15.1,0.1,27.3-12.1,27.4-27.2v-0.1
				C224,13.6,211.8,1.4,196.8,1.3z"/>
		</g>
		<path d="M212.7,36.6L196.7,9l-16,27.6l-1.6,2.8h35.2L212.7,36.6z M196.8,36.6h-12.7l12.7-21.9l12.7,21.9H196.8z"/>
	</g>
</g>
</svg>
