<?xml version="1.0" encoding="utf-8"?>
<!-- Generator: Adobe Illustrator 27.4.1, SVG Export Plug-In . SVG Version: 6.00 Build 0)  -->
<svg version="1.1" id="Layer_1" xmlns="http://www.w3.org/2000/svg" xmlns:xlink="http://www.w3.org/1999/xlink" x="0px" y="0px"
	 viewBox="0 0 224 112.4" style="enable-background:new 0 0 224 112.4;" xml:space="preserve">
<style type="text/css">
	.st0{fill:url(#SVGID_1_);}
	.st1{fill:#F0F0F0;}
	.st2{fill:#FFFFFF;}
</style>
<g>
	<g>
		<g>
			
				<radialGradient id="SVGID_1_" cx="27.3997" cy="28.9003" r="26.2003" gradientTransform="matrix(1 0 0 -1 0 114)" gradientUnits="userSpaceOnUse">
				<stop  offset="0" style="stop-color:#FFFBCC"/>
				<stop  offset="0.1146" style="stop-color:#FBF2BB"/>
				<stop  offset="0.3413" style="stop-color:#F0D98E"/>
				<stop  offset="0.3708" style="stop-color:#EED688"/>
				<stop  offset="0.6854" style="stop-color:#EBBB10"/>
				<stop  offset="1" style="stop-color:#C3922E"/>
			</radialGradient>
			<path class="st0" d="M27.2,111.3c-14.5-0.1-26.1-11.9-26-26.4s11.9-26.1,26.4-26c14.4,0.1,26,11.8,26,26.2
				C53.6,99.6,41.8,111.3,27.2,111.3L27.2,111.3z"/>
			<path class="st1" d="M27.3,59.8c13.9,0,25.2,11.4,25.2,25.3s-11.4,25.2-25.3,25.2S2,99,2,85.1C2,71.1,13.3,59.8,27.3,59.8
				 M27.3,57.8C12.2,57.8,0,70,0,85.1s12.2,27.3,27.3,27.3s27.3-12.2,27.3-27.3l0,0C54.6,70,42.4,57.8,27.3,57.8z"/>
		</g>
		<polygon class="st2" points="41.6,72.7 39.6,70.7 27.3,83.1 14.9,70.7 12.9,72.7 25.2,85.1 12.9,97.4 14.9,99.5 27.3,87.1 
			39.6,99.5 41.6,97.4 29.3,85.1 		"/>
	</g>
</g>
</svg>
