<?xml version="1.0" encoding="utf-8"?>
<!-- Generator: Adobe Illustrator 27.4.1, SVG Export Plug-In . SVG Version: 6.00 Build 0)  -->
<svg version="1.1" id="Layer_1" xmlns="http://www.w3.org/2000/svg" xmlns:xlink="http://www.w3.org/1999/xlink" x="0px" y="0px"
	 viewBox="0 0 224 112.4" style="enable-background:new 0 0 224 112.4;" xml:space="preserve">
<style type="text/css">
	.st0{fill:url(#SVGID_1_);}
	.st1{fill:#0F0F0F;}
</style>
<g>
	<g>
		<g>
			
				<radialGradient id="SVGID_1_" cx="83.75" cy="86.75" r="26.25" gradientTransform="matrix(1 0 0 -1 0 114)" gradientUnits="userSpaceOnUse">
				<stop  offset="0.1798" style="stop-color:#F4E8D9"/>
				<stop  offset="0.5899" style="stop-color:#EDD089"/>
				<stop  offset="1" style="stop-color:#C08329"/>
			</radialGradient>
			<path class="st0" d="M83.8,53.5c-14.5,0-26.3-11.7-26.3-26.2S69.2,1,83.7,1S110,12.7,110,27.2S98.3,53.4,83.8,53.5z"/>
			<path class="st1" d="M83.8,2C97.7,2,109,13.4,109,27.3S97.6,52.5,83.7,52.5S58.5,41.2,58.5,27.3C58.5,13.4,69.7,2,83.7,2H83.8
				 M83.8,0C68.7-0.1,56.5,12.1,56.4,27.2s12.1,27.3,27.2,27.4s27.3-12.1,27.4-27.2v-0.1C111,12.3,98.8,0.1,83.8,0z"/>
		</g>
		<path d="M83.8,8.4c-10.4,0-18.9,8.5-18.9,18.9s8.5,18.9,18.9,18.9s18.9-8.5,18.9-18.9C102.7,16.9,94.2,8.4,83.8,8.4z M83.8,43.3
			c-8.8,0-16-7.2-16-16s7.2-16,16-16s16,7.2,16,16S92.6,43.3,83.8,43.3z"/>
	</g>
</g>
</svg>
