<?xml version="1.0" encoding="utf-8"?>
<!-- Generator: Adobe Illustrator 27.4.1, SVG Export Plug-In . SVG Version: 6.00 Build 0)  -->
<svg version="1.1" id="Layer_1" xmlns="http://www.w3.org/2000/svg" xmlns:xlink="http://www.w3.org/1999/xlink" x="0px" y="0px"
	 viewBox="0 0 286 94" style="enable-background:new 0 0 286 94;" xml:space="preserve">
<style type="text/css">
	.st0{fill:#F0F0F0;}
	.st1{fill:#EDEDED;}
	.st2{fill:#EBEBEB;}
</style>
<g>
	<g>
		<path class="st0" d="M143,92.5c-25.1,0-45.5-20.4-45.5-45.5S117.9,1.5,143,1.5s45.5,20.4,45.5,45.5S168.1,92.5,143,92.5z"/>
		<path class="st1" d="M143,3c24.3,0,44,19.7,44,44s-19.7,44-44,44S99,71.3,99,47S118.7,3,143,3 M143,0c-26,0-47,21-47,47
			s21,47,47,47s47-21,47-47c0-25.9-21-47-46.9-47H143z"/>
	</g>
	<circle class="st2" cx="143" cy="47" r="27.3"/>
	<g>
		<path d="M125.1,33.5h4.6v22.4h13.4v4h-18L125.1,33.5z"/>
		<path d="M151.9,44.8c2.8,0.1,5.7-0.9,5.7-4.1c0-2-1.7-3.7-3.7-3.7c-0.1,0-0.2,0-0.3,0c-2.9,0-4.4,2.6-4.3,5.3h-4.2
			c0.2-5,3.4-8.8,8.6-8.8c4,0,8.2,2.3,8.2,6.9c0,2.6-1.1,4.7-3.7,5.5V46c3,0.6,4.7,3.1,4.7,6.5c0,4.9-4.3,7.9-9.2,7.9
			c-6,0-9-3.6-9.1-9h4.2c-0.1,3.1,1.6,5.5,4.9,5.5c2.8,0,5-1.7,5-4.6c0-4-3.4-4.5-6.8-4.4L151.9,44.8L151.9,44.8z"/>
	</g>
</g>
</svg>
