<?xml version="1.0" encoding="utf-8"?>
<!-- Generator: Adobe Illustrator 27.4.1, SVG Export Plug-In . SVG Version: 6.00 Build 0)  -->
<svg version="1.1" id="Layer_1" xmlns="http://www.w3.org/2000/svg" xmlns:xlink="http://www.w3.org/1999/xlink" x="0px" y="0px"
	 viewBox="0 0 286 94" style="enable-background:new 0 0 286 94;" xml:space="preserve">
<style type="text/css">
	.st0{fill:#F0F0F0;}
	.st1{fill:#EDEDED;}
	.st2{fill:#EBEBEB;}
</style>
<g>
	<g>
		<path class="st0" d="M239,92.5c-25.1,0-45.5-20.4-45.5-45.5S213.9,1.5,239,1.5s45.5,20.4,45.5,45.5
			C284.5,72.1,264.1,92.5,239,92.5z"/>
		<path class="st1" d="M239,3c24.3,0,44,19.7,44,44s-19.7,44-44,44s-44-19.7-44-44S214.7,3,239,3 M239,0c-26,0-47,21-47,47
			s21,47,47,47s47-21,47-47c0-25.9-21-47-46.9-47C239.1,0,239,0,239,0z"/>
	</g>
	<ellipse transform="matrix(0.1735 -0.9848 0.9848 0.1735 151.2456 274.2205)" class="st2" cx="239" cy="47" rx="27.3" ry="27.3"/>
	<g>
		<path d="M218.7,33.5h12.6c5.8,0,8.7,2.7,8.7,7.1c0,5.1-3.5,6.4-4.4,6.7v0.1c1.6,0.2,3.9,1.4,3.9,5.6c0,3.1,0.4,5.9,1.4,7h-5
			c-0.6-1.2-0.8-2.6-0.7-3.9c0-4.8-1-7-5.3-7h-6.8V60h-4.6V33.5H218.7z M223.3,45.6h7.6c3,0,4.5-1.4,4.5-4.2c0-3.4-2.2-4-4.6-4h-7.5
			V45.6z"/>
		<path d="M250.3,44.8c2.8,0.1,5.7-0.9,5.7-4.1c0-2-1.7-3.7-3.7-3.7c-0.1,0-0.2,0-0.3,0c-2.9,0-4.4,2.6-4.3,5.3h-4.2
			c0.2-5,3.4-8.8,8.6-8.8c4,0,8.2,2.3,8.2,6.9c0,2.6-1.1,4.7-3.7,5.5V46c3,0.6,4.7,3.1,4.7,6.5c0,4.9-4.3,7.9-9.2,7.9
			c-6,0-9-3.6-9.1-9h4.2c-0.1,3.1,1.6,5.5,4.9,5.5c2.8,0,5-1.7,5-4.6c0-4-3.4-4.5-6.8-4.4V44.8z"/>
	</g>
</g>
</svg>
