<?xml version="1.0" encoding="utf-8"?>
<!-- Generator: Adobe Illustrator 27.4.1, SVG Export Plug-In . SVG Version: 6.00 Build 0)  -->
<svg version="1.1" id="Layer_1" xmlns="http://www.w3.org/2000/svg" xmlns:xlink="http://www.w3.org/1999/xlink" x="0px" y="0px"
	 viewBox="0 0 286 94" style="enable-background:new 0 0 286 94;" xml:space="preserve">
<style type="text/css">
	.st0{fill:url(#SVGID_1_);}
	.st1{fill:url(#SVGID_00000021833871870064970440000016765117426403187599_);}
</style>
<g>
	<g>
		<path d="M47,92.5C21.9,92.5,1.5,72.1,1.5,47S21.9,1.5,47,1.5S92.5,21.9,92.5,47C92.5,72.1,72.1,92.5,47,92.5z"/>
		<radialGradient id="SVGID_1_" cx="47" cy="47" r="47" gradientUnits="userSpaceOnUse">
			<stop  offset="0" style="stop-color:#FFFBCC"/>
			<stop  offset="0.1146" style="stop-color:#FBF2BB"/>
			<stop  offset="0.3413" style="stop-color:#F0D98E"/>
			<stop  offset="0.3708" style="stop-color:#EED688"/>
			<stop  offset="0.6854" style="stop-color:#EBBB10"/>
			<stop  offset="1" style="stop-color:#C3922E"/>
		</radialGradient>
		<path class="st0" d="M47,3c24.3,0,44,19.7,44,44S71.3,91,47,91S3,71.3,3,47S22.7,3,47,3 M47,0C21,0,0,21,0,47s21,47,47,47
			s47-21,47-47C94,21.1,73,0,47.1,0C47.1,0,47,0,47,0z"/>
	</g>
	
		<radialGradient id="SVGID_00000124880588625420667560000008813634221494858665_" cx="47" cy="47" r="27.3" gradientUnits="userSpaceOnUse">
		<stop  offset="0" style="stop-color:#FFFBCC"/>
		<stop  offset="0.1146" style="stop-color:#FBF2BB"/>
		<stop  offset="0.3413" style="stop-color:#F0D98E"/>
		<stop  offset="0.3708" style="stop-color:#EED688"/>
		<stop  offset="0.6854" style="stop-color:#EBBB10"/>
		<stop  offset="1" style="stop-color:#C3922E"/>
	</radialGradient>
	<circle style="fill:url(#SVGID_00000124880588625420667560000008813634221494858665_);" cx="47" cy="47" r="27.3"/>
</g>
</svg>
