<?xml version="1.0" encoding="utf-8"?>
<!-- Generator: Adobe Illustrator 27.4.1, SVG Export Plug-In . SVG Version: 6.00 Build 0)  -->
<svg version="1.1" id="Layer_1" xmlns="http://www.w3.org/2000/svg" xmlns:xlink="http://www.w3.org/1999/xlink" x="0px" y="0px"
	 viewBox="0 0 200 90.8" style="enable-background:new 0 0 200 90.8;" xml:space="preserve">
<style type="text/css">
	.st0{fill:#EDEDED;}
	.st1{fill:#F5F5F5;}
	.st2{opacity:8.000000e-02;}
</style>
<g id="Layer_1_00000053543983157663266100000018386501308097914783_">
	<g>
		<g>
			<path class="st0" d="M0.1,90.8c0,0,32.7-3.2,50.6-3.2S99,90,99,90s-3.1-44.7-4.8-52s-7.7-21.3-16.9-27.9S65.4,0,54.6,0
				S29.2,6.4,20,21.4S0.1,90.8,0.1,90.8z"/>
			<path class="st1" d="M98.5,83.2c0,0-26.1-4.4-49-4.4S1.6,83.2,1.6,83.2c-1,4.7-1.6,7.6-1.6,7.6s32.7-3.2,50.6-3.2S99,90,99,90
				S98.9,87.3,98.5,83.2z"/>
		</g>
		<g class="st2">
			<path d="M64.6,65.7l-3.2,2.6c-1.2,1.2-1.9,2.8-2,4.5h9.7v-2.6h-6.2c0.6-0.8,1.3-1.4,2.1-1.9c1-0.6,1.9-1.3,2.7-2.1
				c0.8-0.9,1.3-2.1,1.3-3.3c0-1.3-0.5-2.5-1.4-3.3c-1-0.8-2.2-1.2-3.5-1.2c-3.1,0-4.7,1.7-4.7,5h2.7c0-1.8,0.7-2.7,2.1-2.7
				c1-0.1,1.9,0.6,2,1.6c0,0.2,0,0.3,0,0.5C66.3,64,65.6,65.1,64.6,65.7z"/>
			<polygon points="56.1,70.2 49,70.2 49,58.5 46,58.5 46,72.8 56.1,72.8 			"/>
		</g>
	</g>
</g>
</svg>
